<?xml version="1.0" standalone="no"?>
<!DOCTYPE svg PUBLIC "-//W3C//DTD SVG 1.1//EN" "http://www.w3.org/Graphics/SVG/1.1/DTD/svg11.dtd" >
<svg xmlns="http://www.w3.org/2000/svg">
<metadata>
This is a custom SVG webfont generated by Font Squirrel.
Copyright   : Copyright c 2008 by TypeTogether All rights reserved
Designer    : Veronika Burian Jos Scaglione
Foundry     : TypeTogether
Foundry URL : wwwtypetogethercom
</metadata>
<defs>
<font id="BreeRegular" horiz-adv-x="1095" >
<font-face units-per-em="2048" ascent="1475" descent="-573" />
<missing-glyph horiz-adv-x="430" />
<glyph unicode=" "  horiz-adv-x="430" />
<glyph unicode="&#x09;" horiz-adv-x="430" />
<glyph unicode="&#xa0;" horiz-adv-x="430" />
<glyph unicode="!" horiz-adv-x="546" d="M133 102q0 55 39 95.5t98 40.5q66 0 105 -38t39 -95.5t-38 -98.5t-100 -41q-68 0 -105.5 39t-37.5 98zM162 1083v244q0 96 112 96q117 0 117 -100v-240l-41 -714h-145z" />
<glyph unicode="&#x22;" horiz-adv-x="714" d="M115 1362h190l-20 -471h-150zM408 1362h190l-18 -471h-152z" />
<glyph unicode="#" horiz-adv-x="1093" d="M37 322v135h219l29 319h-209v135h219l31 328h149l-31 -328h226l30 328h150l-31 -328h207v-135h-217l-29 -319h207v-135h-219l-27 -322h-149l26 322h-225l-26 -322h-150l27 322h-207zM406 457h225l28 319h-225z" />
<glyph unicode="$" d="M59 147l93 183q141 -92 319 -113v379q-86 27 -141.5 52.5t-110.5 67.5t-82.5 105.5t-27.5 147.5q0 158 100 253t262 117v191h154v-189q240 -25 403 -188l-133 -156q-143 117 -270 142v-346q86 -31 135 -53.5t114.5 -67.5t97.5 -110.5t32 -153.5q0 -172 -100.5 -268.5 t-278.5 -116.5v-244h-154v239q-125 8 -241 48t-171 81zM346 985q0 -57 32 -91t93 -58v299q-125 -31 -125 -150zM625 215q145 33 145 178q0 111 -145 162v-340z" />
<glyph unicode="%" horiz-adv-x="1640" d="M70 971q0 180 88 277.5t237 97.5q147 0 231.5 -92.5t84.5 -274.5q0 -186 -85 -283.5t-241 -97.5q-154 0 -234.5 94.5t-80.5 278.5zM248 965q0 -225 139 -226q143 0 143 234q0 231 -139 231q-143 1 -143 -239zM438 55l598 1282l166 -69l-602 -1286zM934 344 q0 180 88 277.5t238 97.5q147 0 231 -92t84 -275q0 -186 -85 -283.5t-241 -97.5q-154 0 -234.5 94.5t-80.5 278.5zM1112 338q0 -225 139 -225q143 0 144 233q0 231 -140 232q-143 0 -143 -240z" />
<glyph unicode="&#x26;" horiz-adv-x="1644" d="M123 549q0 240 140 409.5t392 169.5q145 0 233.5 -66.5t88.5 -184.5q0 -111 -68 -185q254 145 348 555l228 -67q-115 -469 -496 -623q-221 -90 -618 -96q18 -147 114.5 -220t235.5 -73q166 0 281.5 96t150.5 303h379v-186h-201q-152 -406 -626 -406q-164 0 -283 51.5 t-181.5 138.5t-90 182.5t-27.5 201.5zM365 629q188 8 280 54t92 151q0 41 -28.5 71.5t-87.5 30.5q-92 0 -166 -74.5t-90 -232.5z" />
<glyph unicode="'" horiz-adv-x="419" d="M115 1362h190l-20 -471h-150z" />
<glyph unicode="(" horiz-adv-x="649" d="M141 555q0 465 271 938l194 -90q-223 -440 -223 -838q0 -385 221 -833l-192 -92q-271 458 -271 915z" />
<glyph unicode=")" horiz-adv-x="649" d="M43 -266q223 440 223 837q0 385 -221 834l193 92q270 -459 270 -915q0 -465 -270 -938z" />
<glyph unicode="*" horiz-adv-x="843" d="M57 1290q20 55 78 55q31 0 72 -16q49 -18 90 -60t57 -91q-61 -30 -123 -31q-42 0 -86 14q-94 36 -93 98q-1 14 5 31zM176 868q-31 27 -30 61q0 41 44 93q35 41 89 64q49 22 96 22h8q2 -16 2 -31q0 -43 -13 -84q-17 -55 -44 -86q-53 -60 -99 -60q-28 0 -53 21zM336 1425 q0 127 90 127q88 0 88 -127q0 -53 -25.5 -106t-66.5 -84q-43 41 -64.5 95t-21.5 95zM461 1108h8q47 0 96 -22q53 -24 88 -64q45 -52 45 -93q0 -34 -30 -61q-25 -21 -53 -21q-46 0 -99 60q-27 31 -44 86q-13 41 -13 84q0 16 2 31zM489 1178q16 49 57.5 91t90.5 60 q41 16 72 16q57 0 77 -55q6 -17 6 -31q0 -61 -94 -98q-43 -14 -85 -14q-63 1 -124 31z" />
<glyph unicode="+" d="M127 545v200h315v330h209v-330h316v-200h-316v-328h-209v328h-315z" />
<glyph unicode="," horiz-adv-x="460" d="M49 -279q37 301 62 408q25 109 104 109q47 0 96 -29t78 -57l-211 -469z" />
<glyph unicode="-" horiz-adv-x="659" d="M61 496v188h537v-188h-537z" />
<glyph unicode="." horiz-adv-x="448" d="M82 109q0 61 38 100t101 39q68 0 107 -38t39 -99.5t-38 -101.5t-102 -40q-70 0 -107.5 38.5t-37.5 101.5z" />
<glyph unicode="/" horiz-adv-x="876" d="M16 -147l627 1693l213 -76l-631 -1695z" />
<glyph unicode="0" d="M72 664q0 342 129 512t356 170q465 0 465 -674q0 -358 -121 -525t-358.5 -167t-354 165t-116.5 519zM319 641q0 -254 58.5 -359.5t169 -105.5t171 108.5t60.5 383.5q0 264 -58 370.5t-169 106.5q-115 0 -173.5 -114t-58.5 -390z" />
<glyph unicode="1" horiz-adv-x="929" d="M61 1071l402 248h217l-16 -195v-936h233v-188h-719v188h242v865l-268 -140z" />
<glyph unicode="2" horiz-adv-x="1050" d="M72 0v158l446 514q84 98 115 153.5t31 132.5q0 82 -48.5 125t-123.5 43q-125 0 -283 -145l-135 160q205 205 458 205q186 0 288 -99.5t102 -265.5q0 -190 -177 -389l-344 -393h580v-199h-909z" />
<glyph unicode="3" horiz-adv-x="1054" d="M59 1147q80 78 211 138.5t279 60.5q174 0 268 -88.5t94 -225.5q0 -186 -161 -301q182 -156 182 -352q0 -168 -116 -285t-341 -117q-115 0 -229.5 31t-177.5 72l71 194q162 -90 328 -90q98 0 157.5 48.5t59.5 129.5q0 121 -119 240q-96 -41 -227 -65l-59 180 q201 45 292 101t91 165q0 152 -162 152q-72 0 -158 -40t-160 -104z" />
<glyph unicode="4" horiz-adv-x="1097" d="M61 317v170l406 863l195 -97l-351 -743h314v90l86 293h143v-383h182v-195h-184v-315h-246v317h-545z" />
<glyph unicode="5" horiz-adv-x="1038" d="M45 86l82 188q170 -94 322 -94q113 0 167 55.5t54 145.5q0 250 -516 250l88 688h673v-203h-493l-41 -309q111 -8 204 -35t171 -75t123 -128t45 -184q0 -164 -116 -286t-349 -122q-115 0 -231.5 34t-182.5 75z" />
<glyph unicode="6" horiz-adv-x="1093" d="M111 565q0 150 32.5 277t106.5 240.5t208 189.5t320 102l47 -184q-199 -31 -317.5 -145.5t-140.5 -288.5q129 84 278 84q168 0 262 -106.5t94 -291.5q0 -207 -115.5 -336t-330.5 -129q-229 0 -336.5 160t-107.5 428zM352 586q-1 -21 0 -41q0 -162 44 -264 q50 -115 167 -115q88 0 143.5 70.5t55.5 195.5q0 109 -48 171.5t-134 62.5q-53 0 -122 -24.5t-106 -55.5z" />
<glyph unicode="7" horiz-adv-x="956" d="M47 1116v203h881v-170q-444 -375 -445 -1051v-98h-256v115q0 602 389 1001h-569z" />
<glyph unicode="8" d="M104 326q0 227 246 372q-203 127 -203 306q0 147 112 244.5t296 97.5q195 0 290 -89.5t95 -218.5q0 -164 -190 -327q246 -145 245 -357q0 -162 -115.5 -269.5t-340.5 -107.5q-229 0 -332 104t-103 245zM340 342q0 -74 51 -126t148 -52q94 0 146 49t52 135q0 145 -215 248 q-182 -100 -182 -254zM381 1018q0 -123 184 -219q152 106 152 227q0 68 -47 106.5t-123 38.5q-70 0 -118 -43.5t-48 -109.5z" />
<glyph unicode="9" d="M102 881q0 205 117 335t334 130q229 0 333.5 -160t104.5 -428q0 -700 -665 -783l-50 191q420 72 463 395q-119 -78 -282 -78q-168 0 -261.5 107t-93.5 291zM342 889q0 -106 47 -166.5t133 -60.5q55 0 124 23.5t106 51.5v37q0 381 -207 381q-92 0 -147.5 -69.5 t-55.5 -196.5z" />
<glyph unicode=":" horiz-adv-x="448" d="M82 109q0 61 38 100t101 39q68 0 107 -38t39 -99.5t-38 -101.5t-102 -40q-70 0 -107.5 38.5t-37.5 101.5zM82 877q0 61 38 100t101 39q68 0 107 -38t39 -99.5t-38 -101.5t-102 -40q-70 0 -107.5 38.5t-37.5 101.5z" />
<glyph unicode=";" horiz-adv-x="460" d="M49 -279q37 301 62 408q25 109 104 109q47 0 96 -29t78 -57l-211 -469zM111 877q0 61 37.5 100t101.5 39q68 0 106.5 -38t38.5 -99.5t-38 -101.5t-101 -40q-70 0 -107.5 38.5t-37.5 101.5z" />
<glyph unicode="&#x3c;" d="M139 573v160l750 367l82 -182l-559 -259l563 -270l-86 -184z" />
<glyph unicode="=" d="M133 332v198h830v-198h-830zM133 725v197h830v-197h-830z" />
<glyph unicode="&#x3e;" d="M139 389l563 270l-559 259l82 182l750 -367v-160l-750 -368z" />
<glyph unicode="?" horiz-adv-x="784" d="M63 1364q164 59 293 59q178 0 262 -83t84 -226q0 -127 -54 -203.5t-165 -158.5q-45 -33 -62.5 -47.5t-31.5 -43t-14 -67.5v-225h-189q-14 143 -14 215q0 115 33 177t125 130q6 4 30.5 22.5t30.5 24.5t24.5 22.5t24.5 27.5l17 30q10 18 13 37.5t3 42.5q0 63 -37 98t-96 35 q-86 0 -236 -55zM135 102q0 55 39 95.5t98 40.5q66 0 105 -38t39 -95.5t-38 -98.5t-99 -41q-68 0 -106 39t-38 98z" />
<glyph unicode="@" horiz-adv-x="1951" d="M137 434q0 422 252 657.5t647 235.5q350 0 563 -193.5t213 -545.5q0 -287 -139 -436.5t-370 -151.5h-117l-17 111l-6 2q-80 -119 -241 -119q-334 0 -334 418q0 238 115.5 368.5t328.5 130.5q147 0 307 -59v-600l9 -109q287 18 286 439q0 268 -153.5 426.5t-456.5 158.5 q-336 0 -517 -202.5t-181 -522.5q0 -305 162.5 -493.5t455.5 -188.5q182 0 324 64l51 -150q-162 -70 -381 -69q-205 0 -362.5 68.5t-252 186t-140.5 263t-46 311.5zM788 418q0 -272 181 -273q168 0 168 197v397q-49 23 -117 23q-232 -2 -232 -344z" />
<glyph unicode="A" horiz-adv-x="1280" d="M25 0l471 1362h278l481 -1362h-266l-123 360h-479l-121 -360h-241zM436 549h381l-184 584h-6z" />
<glyph unicode="B" horiz-adv-x="1187" d="M143 0v1362h461q442 0 443 -342q0 -188 -189 -287q121 -31 189.5 -112.5t68.5 -212.5q0 -199 -134 -303.5t-390 -104.5h-449zM393 193h193q266 0 266 217q0 102 -66.5 156.5t-189.5 54.5h-203v-428zM393 1174v-371h152q127 0 187.5 52t60.5 138q0 102 -60.5 141.5 t-173.5 39.5h-166z" />
<glyph unicode="C" horiz-adv-x="1208" d="M92 674q0 156 37 279.5t97.5 202.5t141.5 132t165.5 75.5t177.5 22.5q295 0 467 -253l-179 -129q-137 172 -301 172q-160 0 -255 -128t-95 -358q0 -242 91 -375t274 -133q160 0 319 144l129 -164q-199 -186 -463 -187q-285 0 -445.5 178.5t-160.5 520.5z" />
<glyph unicode="D" horiz-adv-x="1318" d="M143 0v1362h445q301 0 470 -160t169 -473q0 -195 -51.5 -339t-140.5 -227t-198.5 -123t-238.5 -40h-455zM393 197h209q176 0 274.5 127t98.5 368q0 471 -400 471h-182v-966z" />
<glyph unicode="E" horiz-adv-x="1042" d="M143 0v1362h822v-217h-572v-342h490v-217h-490v-369h586v-217h-836z" />
<glyph unicode="F" horiz-adv-x="1058" d="M143 0v1362h873v-217h-623v-350h516v-217h-516v-578h-250z" />
<glyph unicode="G" horiz-adv-x="1288" d="M92 678q0 190 53.5 332.5t142.5 221.5t190.5 116.5t213.5 37.5q305 0 484 -245l-181 -135q-135 170 -305 170q-160 0 -251 -127t-91 -355q0 -516 357 -516q141 0 217 49v297h-193v189h442v-607q-190 -131 -477 -131q-285 0 -443.5 177.5t-158.5 525.5z" />
<glyph unicode="H" horiz-adv-x="1368" d="M143 0v1362h250v-557h580v557h252v-1362h-252v588h-580v-588h-250z" />
<glyph unicode="I" horiz-adv-x="544" d="M147 0v1362h250v-1362h-250z" />
<glyph unicode="J" horiz-adv-x="878" d="M8 82l105 178q104 -76 227 -76q152 0 152 187v991h249v-873q0 -145 -8 -215q-16 -141 -111.5 -220t-261.5 -79q-215 1 -352 107z" />
<glyph unicode="K" horiz-adv-x="1187" d="M143 0v1362h248v-684l488 684h266l-389 -555l424 -807h-283l-309 606l-197 -264v-342h-248z" />
<glyph unicode="L" horiz-adv-x="1024" d="M145 0v1362h250v-1145h578v-217h-828z" />
<glyph unicode="M" horiz-adv-x="1642" d="M123 0l78 1362h278l340 -891h4l351 891h272l74 -1362h-238l-51 938h-4l-316 -786h-188l-307 778h-4l-52 -930h-237z" />
<glyph unicode="N" horiz-adv-x="1363" d="M143 0v1362h252l574 -946h4v946h248v-1362h-240l-588 961h-4v-961h-246z" />
<glyph unicode="O" horiz-adv-x="1357" d="M92 678q0 188 53.5 330.5t142.5 222.5t192.5 117.5t215.5 37.5q119 0 218.5 -38.5t180.5 -119.5t126 -221.5t45 -328.5q0 -344 -158 -523.5t-434 -179.5q-279 0 -430.5 178.5t-151.5 524.5zM348 688q0 -506 340 -506q90 0 154.5 41t100.5 113t52.5 154.5t16.5 181.5 q0 86 -15.5 168t-49.5 160.5t-102.5 127t-160.5 48.5q-117 0 -195.5 -73t-109.5 -178.5t-31 -236.5z" />
<glyph unicode="P" horiz-adv-x="1163" d="M143 0v1362h469q229 0 357.5 -107.5t128.5 -310.5q0 -227 -145.5 -347t-385.5 -120h-174v-477h-250zM393 676h148q299 0 299 244q0 147 -77 195t-245 48h-125v-487z" />
<glyph unicode="Q" horiz-adv-x="1349" d="M92 913q0 211 148.5 342t380.5 131q258 0 425.5 -161.5t167.5 -483.5q0 -313 -163 -563q154 -141 273.5 -214t285.5 -97l-49 -193q-319 45 -646 351q-203 -182 -434 -183q-180 0 -265 83t-85 198q0 129 99.5 207t254.5 78q188 0 369 -107q45 74 74.5 189.5t29.5 216.5 q0 217 -81.5 345t-262.5 128q-121 0 -200.5 -72t-79.5 -193q0 -113 66.5 -174t203.5 -92l-43 -143q-193 2 -331 105t-138 302zM356 129q0 -45 32 -75.5t101 -30.5q141 0 259 124q-127 88 -244 89q-148 -1 -148 -107z" />
<glyph unicode="R" horiz-adv-x="1218" d="M143 0v1362h457q238 0 365 -88t127 -289q0 -141 -69 -231t-167 -129q70 -25 113 -125l225 -500h-266l-197 430q-47 106 -135 107h-203v-537h-250zM393 731h205q113 0 176.5 60.5t63.5 175.5q0 123 -70 159.5t-231 36.5h-144v-432z" />
<glyph unicode="S" horiz-adv-x="1099" d="M59 106l93 205q70 -45 176 -81.5t202 -36.5q219 0 220 188q0 88 -64.5 130t-196.5 77q-88 25 -148 50.5t-120.5 69.5t-91.5 113.5t-31 163.5q0 184 128 292.5t333 108.5q137 0 261 -53t208 -139l-133 -166q-176 145 -336 146q-82 0 -141.5 -40t-59.5 -126t64.5 -128 t208.5 -85q68 -20 112.5 -39t101 -52.5t89.5 -73.5t56.5 -101.5t23.5 -137.5q0 -199 -131 -307.5t-357 -108.5q-137 0 -270.5 43t-196.5 88z" />
<glyph unicode="T" horiz-adv-x="1101" d="M35 1145v217h1032v-217h-397v-1145h-248v1145h-387z" />
<glyph unicode="U" horiz-adv-x="1288" d="M133 432v930h248v-918q0 -260 268 -260q117 0 186.5 63.5t69.5 186.5v928h250v-963q0 -199 -140.5 -311.5t-373.5 -112.5q-256 0 -382 109.5t-126 347.5z" />
<glyph unicode="V" horiz-adv-x="1212" d="M20 1362h254l328 -1061h10l334 1061h246l-459 -1362h-260z" />
<glyph unicode="W" horiz-adv-x="1660" d="M35 1362h250l211 -1016h8l209 907h254l213 -909h4l196 1018h246l-293 -1362h-278l-219 887h-7l-211 -887h-284z" />
<glyph unicode="X" horiz-adv-x="1249" d="M-6 0l481 719l-424 643h293l289 -459l291 459h284l-430 -641l475 -721h-288l-340 516l-338 -516h-293z" />
<glyph unicode="Y" horiz-adv-x="1138" d="M0 1362h276l297 -592h9l292 592h265l-447 -842v-520h-250v520z" />
<glyph unicode="Z" horiz-adv-x="1034" d="M55 0v170l619 997h-606v195h897v-166l-625 -1001h647v-195h-932z" />
<glyph unicode="[" horiz-adv-x="614" d="M164 -340v1802h430v-166h-205v-1470h205v-166h-430z" />
<glyph unicode="\" horiz-adv-x="876" d="M6 1470l211 78l629 -1695l-211 -76z" />
<glyph unicode="]" horiz-adv-x="614" d="M20 -174h205v1470h-205v166h431v-1802h-431v166z" />
<glyph unicode="^" horiz-adv-x="1132" d="M100 618l383 762h179l380 -764l-206 -32l-267 546l-268 -546z" />
<glyph unicode="_" horiz-adv-x="1024" d="M0 -152h1024v-149h-1024v149z" />
<glyph unicode="`" horiz-adv-x="1024" d="M322 1507q0 82 155 123l240 -393l-80 -68q-225 201 -260 236q-55 57 -55 102z" />
<glyph unicode="a" horiz-adv-x="1099" d="M76 471q0 276 136 433t396 157q174 0 365 -72v-792l18 -197h-211l-14 109l-8 2q-94 -137 -281 -138q-207 0 -304 133.5t-97 364.5zM317 479q0 -332 213 -332q90 0 145.5 54.5t55.5 124.5v530q-57 27 -153 27q-137 0 -199 -111t-62 -293z" />
<glyph unicode="b" horiz-adv-x="1093" d="M129 57v1366h244v-448q92 86 241 86q193 0 300.5 -129t107.5 -367q0 -295 -125 -445.5t-360 -150.5q-106 0 -224 25.5t-184 62.5zM373 729v-545q78 -41 174 -41q233 0 233 389q0 350 -229 351q-74 0 -126 -43t-52 -111z" />
<glyph unicode="c" horiz-adv-x="931" d="M76 510q0 147 43 259t113.5 172t150.5 90t166 30q244 0 377 -195l-154 -127q-102 127 -219 127q-106 0 -170 -88t-64 -258q0 -166 65 -260t196 -94q115 0 235 88l92 -164q-145 -119 -356 -119q-227 0 -351 139.5t-124 399.5z" />
<glyph unicode="d" horiz-adv-x="1099" d="M76 475q0 266 131 426t364 160q80 0 160 -25v387h242v-1222l18 -201h-209l-16 111l-8 2q-96 -143 -279 -144q-115 0 -196.5 42t-125.5 117t-62.5 160t-18.5 187zM317 498q0 -348 211 -348q88 0 145.5 53t57.5 116v531q-74 33 -153 33q-135 0 -198 -108.5t-63 -276.5z" />
<glyph unicode="e" horiz-adv-x="946" d="M76 494q0 238 133 402.5t366 164.5q152 0 239 -75t87 -210q0 -90 -43 -157.5t-105.5 -104.5t-147.5 -59.5t-149.5 -29.5t-133.5 -7q6 -111 70.5 -186.5t187.5 -75.5q131 0 258 90l75 -162q-41 -37 -138 -76t-222 -39q-244 0 -360.5 140.5t-116.5 384.5zM313 575 q49 0 106.5 8.5t120 27t103.5 59.5t41 96t-34 88t-89 33q-115 0 -179.5 -92.5t-68.5 -219.5z" />
<glyph unicode="f" horiz-adv-x="684" d="M131 -430v1517q0 57 6 102.5t27.5 98.5t58.5 89t103.5 59.5t158.5 23.5q156 0 285 -71l-59 -164q-98 51 -195 51q-76 0 -108.5 -42t-32.5 -128v-76h303v-190h-303v-1270h-244z" />
<glyph unicode="g" horiz-adv-x="1097" d="M74 539q0 252 140 387t366 135q219 0 397 -76v-780q0 -188 -6 -262q-39 -483 -453 -484q-168 0 -256 73t-88 202q0 211 227 364q-143 20 -235 128t-92 313zM317 555q0 -68 7.5 -118t28 -101t67.5 -79t117 -28q84 0 140 54.5t56 146.5v428q-70 25 -158 25 q-125 0 -191.5 -89t-66.5 -239zM397 -227q0 -135 142 -135q113 0 154.5 93t41.5 269v133q-338 -170 -338 -360z" />
<glyph unicode="h" horiz-adv-x="1093" d="M123 0v1423h244v-479q102 117 276 117q330 0 330 -361v-700h-244v657q0 102 -32.5 158.5t-125.5 56.5q-86 0 -145 -61t-59 -141v-670h-244z" />
<glyph unicode="i" horiz-adv-x="499" d="M113 1325q0 57 40 97t101 40t101 -40t40 -97q0 -59 -40 -97t-101 -38q-63 0 -102 38t-39 97zM133 0v1030h244v-1030h-244z" />
<glyph unicode="j" horiz-adv-x="499" d="M-213 -387l74 170q80 -43 151 -43q61 0 91 41t30 139v1110h244v-1100q0 -84 -11.5 -145t-43 -120.5t-100 -91.5t-173.5 -32q-147 0 -262 72zM119 1325q0 57 39 97t102 40q61 0 101 -40t40 -97q0 -59 -39.5 -97t-103.5 -38q-61 0 -100 38t-39 97z" />
<glyph unicode="k" horiz-adv-x="1015" d="M129 0v1423h244v-589h6q51 98 138 162.5t212 64.5q102 0 171 -61.5t69 -186.5q0 -98 -53.5 -196.5t-165.5 -167.5l239 -449h-274l-191 358q-74 -16 -151 -22v-336h-244zM375 510q158 14 249 86t91 180q0 90 -76 90q-94 0 -173 -115.5t-91 -240.5z" />
<glyph unicode="l" horiz-adv-x="661" d="M129 285v1136h244v-1085q0 -96 24.5 -135t85.5 -39q53 0 129 33l54 -164q-98 -61 -244 -62q-80 0 -136.5 19.5t-86 46t-46 73t-20.5 84.5t-4 93z" />
<glyph unicode="m" horiz-adv-x="1667" d="M115 1030h202l21 -129q104 160 297 160q203 0 285 -164q94 164 299 164q158 0 241.5 -92t83.5 -271v-698h-244v649q0 106 -31.5 164.5t-123.5 58.5q-82 0 -133 -59t-51 -141v-672h-244v649q0 49 -5 83t-19.5 69t-47.5 53t-84 18q-84 0 -134 -61t-50 -147v-664h-244v852z " />
<glyph unicode="n" horiz-adv-x="1101" d="M115 1030h204l21 -129q113 160 315 160q156 0 241 -89t85 -267v-705h-244v651q0 109 -31.5 165t-121.5 56t-149.5 -62t-59.5 -144v-666h-244v852z" />
<glyph unicode="o" horiz-adv-x="1064" d="M74 516q0 152 44 263.5t116.5 170t151.5 85t165 26.5q55 0 105.5 -8.5t116 -40t112.5 -83.5t79.5 -151.5t32.5 -234.5q0 -283 -133 -428.5t-346 -145.5q-211 0 -327.5 137.5t-116.5 409.5zM322 545q0 -395 213 -395q109 0 161 96t52 264q0 371 -209 371q-109 0 -163 -91 t-54 -245z" />
<glyph unicode="p" horiz-adv-x="1093" d="M127 -430v1423q221 68 410 68q481 0 481 -537q0 -266 -116 -410.5t-318 -144.5q-117 0 -213 60v-459h-244zM371 221q78 -51 174 -51q121 0 174 97.5t53 238.5q0 360 -280 360q-61 0 -121 -14v-631z" />
<glyph unicode="q" horiz-adv-x="1091" d="M76 487q0 264 136 419t374 155q186 0 379 -76v-1415h-244v485h-6q-106 -84 -242 -84q-397 0 -397 516zM319 512q0 -63 2.5 -106.5t13.5 -96.5t32.5 -84.5t60.5 -54.5t94 -23q88 0 143.5 54.5t55.5 115.5v541q-55 16 -121 16q-131 0 -206 -103t-75 -259z" />
<glyph unicode="r" horiz-adv-x="749" d="M115 1030h200l25 -149q33 86 100.5 133t147.5 47q94 0 164 -41l-43 -207q-76 41 -146 41q-82 0 -132 -58.5t-54 -148.5v-647h-244v864z" />
<glyph unicode="s" horiz-adv-x="858" d="M41 74l72 174q154 -98 293 -99q70 0 112.5 33t42.5 99q0 63 -43 92.5t-131 56.5q-76 23 -116 38t-95 49t-80.5 88t-25.5 130q0 154 108.5 240t265.5 86q225 0 371 -146l-117 -143q-127 111 -249 111q-59 0 -101.5 -31t-42.5 -88q0 -45 28.5 -76t60.5 -43t93 -31 q72 -23 115 -41t96.5 -54t79 -91t25.5 -131q0 -156 -105.5 -242t-281.5 -86q-119 0 -222.5 34t-152.5 71z" />
<glyph unicode="t" horiz-adv-x="716" d="M129 311v1112h244v-393h276v-190h-276v-521q0 -90 32.5 -125.5t100.5 -35.5q70 0 139 43l62 -158q-102 -72 -261 -72q-92 0 -155.5 23.5t-94 52.5t-47 84t-18.5 87t-2 93z" />
<glyph unicode="u" horiz-adv-x="1105" d="M127 332v698h244v-653q0 -106 32.5 -161.5t126.5 -55.5q82 0 142.5 60.5t60.5 135.5v674h244v-858l16 -172h-209l-14 121h-8q-102 -150 -297 -150q-338 1 -338 361z" />
<glyph unicode="v" horiz-adv-x="1062" d="M127 336v694h246v-645q0 -76 6 -117t39 -73.5t94 -32.5q119 0 172 115.5t53 285.5q0 188 -69 467h241q68 -236 68 -450q0 -287 -126 -448t-366 -161q-182 0 -270 88.5t-88 276.5z" />
<glyph unicode="w" horiz-adv-x="1607" d="M127 328v702h244v-639q0 -76 7 -119t39 -77.5t93 -34.5q80 0 133 58t53 138v674h244v-637q0 -47 2 -74.5t9 -62.5t20.5 -52.5t40 -30.5t63.5 -13q207 0 207 415q0 184 -72 455h240q72 -238 72 -446q0 -289 -112 -451t-333 -162q-209 0 -276 168q-119 -168 -330 -168 q-344 1 -344 357z" />
<glyph unicode="x" horiz-adv-x="964" d="M-6 0l360 532l-321 498h260l201 -328l213 328h245l-331 -495l350 -535h-264l-224 354l-227 -354h-262z" />
<glyph unicode="y" horiz-adv-x="1097" d="M127 406v624h244v-581q0 -119 31.5 -175.5t142.5 -56.5q88 0 138 47t50 133v633h242v-901q0 -176 -17 -285q-29 -186 -141 -287.5t-301 -101.5q-162 0 -247 72t-85 197q0 199 215 350q-272 39 -272 332zM408 -238q0 -131 137 -131q190 0 190 318v172 q-158 -76 -242.5 -158t-84.5 -201z" />
<glyph unicode="z" horiz-adv-x="839" d="M14 -221q0 279 316 446l-197 88v148l373 379h-465v190h768v-153l-442 -453l125 -57q319 -147 319 -445q0 -203 -118 -334t-320 -131q-176 0 -267.5 86t-91.5 236zM233 -193q0 -74 38 -120.5t116 -46.5q96 0 148.5 72.5t52.5 183.5q0 158 -119 235q-113 -59 -174.5 -146.5 t-61.5 -177.5z" />
<glyph unicode="{" horiz-adv-x="645" d="M88 500v151q84 10 110 64q22 46 22 146q0 16 -1 34q-2 57 -8 164.5t-8 126.5q-1 12 -1 23q0 125 63 191q69 73 196 73q82 0 164 -21l-21 -152q-57 10 -82 11q-63 0 -82.5 -32t-19.5 -112q0 -45 9 -165.5t9 -167.5q0 -104 -30.5 -166t-104.5 -93q78 -27 106.5 -81 t28.5 -166q0 -47 -11 -180.5t-11 -180.5q0 -80 19.5 -116.5t82.5 -36.5q39 0 80 10l20 -156q-86 -18 -161 -18q-125 0 -193.5 69.5t-68.5 190.5q0 61 20 348q1 23 1 44q0 86 -20 131q-26 57 -108 67z" />
<glyph unicode="|" horiz-adv-x="561" d="M174 -180v1710h213v-1710h-213z" />
<glyph unicode="}" horiz-adv-x="645" d="M20 1452q82 20 164 21q127 0 196 -73q63 -67 63 -191q0 -11 -1 -23q0 -18 -7 -126t-9 -165q-1 -18 -1 -34q0 -101 22 -146q26 -53 110 -64v-151q-82 -10 -107 -67q-21 -45 -21 -131q0 -21 1 -44q20 -287 21 -348q0 -121 -69 -190.5t-194 -69.5q-76 0 -161 18l20 156 q41 -10 80 -10q63 0 82.5 36.5t19.5 116.5q0 47 -11 180.5t-11 180.5q0 113 28.5 167t106.5 80q-74 31 -104.5 92.5t-30.5 166.5q0 47 9 167.5t9 165.5q0 80 -19.5 112t-82.5 32q-25 0 -82 -11z" />
<glyph unicode="~" horiz-adv-x="1224" d="M96 578q129 217 299 217q88 0 222.5 -78t195.5 -78q92 0 166 131l149 -111q-100 -213 -299 -213q-94 0 -229 75t-184 75q-84 0 -172 -133z" />
<glyph unicode="&#xa1;" horiz-adv-x="546" d="M133 921.5q0 57.5 38 98.5t99 41q68 0 106 -39t38 -98q0 -55 -39 -95.5t-99 -40.5q-66 0 -104.5 38t-38.5 95.5zM156 -57l41 714h145l43 -714v-244q0 -96 -113 -96q-117 0 -116 100v240z" />
<glyph unicode="&#xa2;" d="M154 633q0 252 114.5 384t284.5 157v229h154v-229q188 -33 297 -189l-154 -127q-74 86 -143 113v-674q88 14 186 86l92 -164q-113 -94 -278 -115v-227h-154v227q-193 23 -296 158t-103 371zM397 643q0 -268 156 -330v658q-156 -58 -156 -328z" />
<glyph unicode="&#xa3;" horiz-adv-x="1130" d="M10 -156q78 37 124 95.5t71 156.5l47 197h-174v172h207l102 479q47 217 152.5 309.5t273.5 92.5q180 0 334 -134l-119 -147q-109 88 -211 88q-90 0 -132 -53t-69 -178l-98 -457h330v-170h-363l-36 -162q-35 -164 -162 -270l2 -4q96 29 157 28q63 0 181 -24.5t192 -24.5 q92 0 193 29l-27 -199q-98 -18 -178 -18q-100 0 -266 31.5t-258 31.5q-141 0 -273 -59v190z" />
<glyph unicode="&#xa5;" horiz-adv-x="1097" d="M47 1319h254l252 -518h10l248 518h246l-297 -557h225v-156h-313v-153h313v-156h-313v-297h-248v297h-315v156h315v153h-315v156h229z" />
<glyph unicode="&#xa6;" horiz-adv-x="563" d="M174 -180v766h215v-766h-215zM174 825v705h215v-705h-215z" />
<glyph unicode="&#xa7;" horiz-adv-x="1130" d="M106 776l177 31q0 -13 -1 -26q0 -105 30 -189q34 -94 86.5 -149.5t133.5 -106.5q6 -4 52.5 -33t55.5 -36t48 -33.5t49.5 -39t39 -40t37.5 -50t23.5 -53.5t19.5 -64.5t5 -72.5q0 -49 -16.5 -100.5t-54 -106.5t-115.5 -90t-184 -35q-166 0 -293 64l53 168q106 -53 215 -54 q82 0 127 41t45 105q0 27 -6 50.5t-23.5 46t-31 37.5t-45 37.5t-48.5 33.5l-57 35l-57 36q-90 57 -148.5 124t-94.5 188q-26 86 -26 193q0 43 4 89zM233 1034q0 49 16.5 100.5t54.5 106.5t116 90t184 35q166 0 293 -63l-53 -168q-106 53 -215 53q-82 0 -127 -41t-45 -105 q0 -27 6 -50t23.5 -45.5l30.5 -38t45 -38t48 -32.5l58 -36l57 -36q90 -57 148.5 -124t94.5 -187q26 -86 25 -194q0 -43 -4 -89l-176 -31v26q0 105 -30 189q-34 94 -86 149.5t-134 106.5q-6 4 -52 33t-55.5 36t-48 33.5t-49 39t-39 40t-38 50l-23.5 53.5t-19.5 64.5 t-5.5 72.5z" />
<glyph unicode="&#xa8;" horiz-adv-x="1024" d="M184 1364q0 53 36 89t95 36q55 0 92 -36t37 -89q0 -55 -36.5 -91t-94 -36t-93.5 36t-36 91zM590 1364q0 53 36 89t93 36q55 0 92 -36t37 -89q0 -55 -36 -91t-93 -36q-59 0 -94 36t-35 91z" />
<glyph unicode="&#xa9;" horiz-adv-x="1667" d="M123 668q0 303 197.5 509.5t502.5 206.5q313 0 516 -204.5t203 -499.5q0 -309 -202.5 -515t-516.5 -206q-322 0 -511 197t-189 512zM285 668q0 -256 150.5 -409t390 -153t397 161t157.5 407q0 242 -158.5 402.5t-396.5 160.5q-240 0 -390 -162.5t-150 -406.5zM475 678 q0 113 34 196.5t89 126.5t112.5 63.5t118.5 20.5q195 0 308 -153l-115 -90q-94 102 -197 102q-78 0 -132 -62.5t-54 -201.5q0 -274 199 -274q92 0 196 86l82 -111q-111 -115 -282 -115q-176 0 -267.5 109.5t-91.5 302.5z" />
<glyph unicode="&#xaa;" horiz-adv-x="847" d="M98 858q0 180 97.5 285.5t275.5 105.5q129 0 262 -49v-510l19 -149h-168l-11 80h-8q-78 -96 -190 -97q-141 0 -209 95.5t-68 238.5zM287 879q0 -219 135 -220q53 0 88 30t35 63v344q-45 16 -94 16q-82 0 -123 -65.5t-41 -167.5z" />
<glyph unicode="&#xab;" horiz-adv-x="1085" d="M104 545q0 41 60 100q139 133 338 283l94 -92l-256 -297l240 -332l-95 -86q-92 76 -203.5 183.5t-150.5 168.5q-27 39 -27 72zM522 545q0 41 60 100q139 133 338 283l94 -92l-256 -297l239 -332l-94 -86q-92 76 -203.5 183.5t-150.5 168.5q-27 39 -27 72z" />
<glyph unicode="&#xac;" d="M106 645v199h879v-494h-197v295h-682z" />
<glyph unicode="&#xad;" horiz-adv-x="659" d="M86 500v190h485v-190h-485z" />
<glyph unicode="&#xae;" horiz-adv-x="948" d="M61 985q0 174 115 287.5t293 113.5q182 0 300 -113.5t118 -283.5q0 -176 -117 -289.5t-301 -113.5q-186 0 -297 111.5t-111 287.5zM170 985q0 -135 84 -221t215 -86q137 0 223 84t86 223q0 133 -88 220t-221 87q-135 0 -217 -86t-82 -221zM332 774v432h155 q143 0 144 -116q0 -86 -70 -119q16 -8 27 -31l74 -166h-103l-63 144q-12 29 -33 28h-39v-172h-92zM424 1020h33q74 0 73 61q0 51 -73 52h-33v-113z" />
<glyph unicode="&#xaf;" horiz-adv-x="1024" d="M213 1268v176h588v-176h-588z" />
<glyph unicode="&#xb0;" horiz-adv-x="610" d="M72 1221q0 104 65.5 172.5t167.5 68.5q106 0 170 -66.5t64 -162.5q0 -109 -65.5 -178.5t-174.5 -69.5q-106 0 -166.5 67t-60.5 169zM199 1221q0 -53 27.5 -87t78.5 -34t78 33.5t27 87.5q0 125 -105 125q-106 0 -106 -125z" />
<glyph unicode="&#xb1;" d="M133 72v198h305v275h-305v200h305v320h209v-320h316v-200h-316v-275h316v-198h-830z" />
<glyph unicode="&#xb2;" horiz-adv-x="772" d="M88 1391q152 119 309 118q123 0 188.5 -57t65.5 -147q0 -119 -114 -246l-185 -213h326v-148h-563v119l254 291q90 109 90 168q0 80 -94 80q-78 0 -187 -80z" />
<glyph unicode="&#xb3;" horiz-adv-x="772" d="M111 748l49 137q102 -53 211 -54q121 0 121 89q0 41 -62 141q-68 -25 -164 -43l-39 119q80 18 133 37q37 12 57.5 22t39 33.5t18.5 56.5q0 76 -94 76q-74 0 -193 -62l-71 115q154 94 303 94q113 0 173 -54t60 -138q0 -106 -86 -178q98 -115 99 -217q0 -98 -74 -166 t-219 -68q-147 1 -262 60z" />
<glyph unicode="&#xb4;" horiz-adv-x="1024" d="M303 1237l238 393q156 -41 155 -123q0 -41 -55 -100q-23 -25 -258 -238z" />
<glyph unicode="&#xb5;" horiz-adv-x="1196" d="M152 -442v1472h229v-592q0 -143 45 -219t154 -76q104 0 161.5 89.5t57.5 240.5v557h233v-819q0 -68 53 -68q29 0 80 25l29 -143q-88 -49 -186 -50q-154 0 -162 166q-33 -76 -104.5 -123t-159.5 -47q-143 0 -211 101v-514h-219z" />
<glyph unicode="&#xb6;" horiz-adv-x="1079" d="M104 881q0 250 135.5 365.5t358.5 115.5h338v-1196q0 -268 -104.5 -397t-397.5 -189l-51 201q180 43 248.5 121t68.5 225v1059h-147v-746q-195 4 -322 116t-127 325z" />
<glyph unicode="&#xb7;" horiz-adv-x="632" d="M174 629q0 61 38 100t101 39q68 0 107 -38t39 -99.5t-38 -101.5t-102 -40q-70 0 -107.5 38.5t-37.5 101.5z" />
<glyph unicode="&#xb8;" horiz-adv-x="1024" d="M272 -459l33 111q80 -27 137 -27q102 0 103 72q0 45 -46 61.5t-139 16.5l74 231h117l-37 -141q84 -6 134 -48t50 -114q0 -102 -71.5 -150.5t-169.5 -48.5q-101 0 -185 37z" />
<glyph unicode="&#xb9;" horiz-adv-x="772" d="M102 1352l256 145h162l-12 -141v-514h143v-144h-477v144h154v467l-166 -74z" />
<glyph unicode="&#xba;" horiz-adv-x="831" d="M86 881q0 102 30.5 178t83 115.5t107.5 58t115 18.5q131 0 226 -78.5t95 -265.5q0 -182 -92 -282.5t-245 -100.5q-152 0 -236 95.5t-84 261.5zM279 913q0 -250 135 -249q137 0 137 221q0 117 -32 173t-107 56q-68 0 -100.5 -56.5t-32.5 -144.5z" />
<glyph unicode="&#xbb;" horiz-adv-x="1085" d="M72 836l92 92q180 -135 340 -283q59 -59 59 -100q0 -33 -26 -72q-39 -61 -152 -169.5t-205 -182.5l-94 86l240 332zM489 836l93 92q180 -135 340 -283q59 -59 59 -100q0 -33 -27 -72q-39 -61 -151.5 -169.5t-204.5 -182.5l-94 86l239 332z" />
<glyph unicode="&#xbc;" horiz-adv-x="1689" d="M55 1188l256 145h162l-12 -141v-514h143v-143h-477v143h154v467l-166 -74zM459 53l598 1282l160 -67l-603 -1286zM975 178v111l250 536l141 -65l-209 -449h160l59 217h109v-217h125v-137h-125v-174h-178v178h-332z" />
<glyph unicode="&#xbd;" horiz-adv-x="1689" d="M59 1188l256 145h162l-12 -141v-514h143v-143h-477v143h154v467l-166 -74zM444 53l598 1282l160 -67l-602 -1286zM1016 692q152 119 309 119q123 0 188.5 -57.5t65.5 -147.5q0 -119 -115 -246l-184 -213h326v-147h-564v119l254 291q90 109 90 168q0 80 -94 79 q-78 0 -186 -79z" />
<glyph unicode="&#xbe;" horiz-adv-x="1689" d="M72 584l49 137q102 -53 211 -53q121 0 121 88q0 41 -62 141q-68 -25 -164 -43l-39 119q80 18 134 37q37 12 57 22t38.5 34t18.5 56q0 76 -94 76q-74 0 -192 -61l-72 114q154 94 303 95q113 0 173 -54.5t60 -138.5q0 -106 -86 -178q98 -115 99 -217q0 -98 -74 -166 t-219 -68q-147 1 -262 60zM479 53l598 1282l160 -67l-602 -1286zM991 178v111l250 536l141 -65l-208 -449h159l60 217h108v-217h125v-137h-125v-174h-178v178h-332z" />
<glyph unicode="&#xbf;" horiz-adv-x="772" d="M76 -88q0 127 54 204t165 158q45 33 62.5 47.5t31.5 43t14 67.5v225h189q14 -143 14 -215q0 -115 -32.5 -177t-124.5 -130q-6 -4 -31 -22.5t-31 -24.5t-24.5 -22.5t-24.5 -27.5l-16 -30q-10 -18 -13.5 -37.5t-3.5 -42.5q0 -63 37 -98t96 -35q86 0 236 55l41 -188 q-164 -59 -293 -59q-178 0 -262 83t-84 226zM362 921.5q0 57.5 38 98.5t100 41q68 0 105.5 -39t37.5 -98q0 -55 -39 -95.5t-98 -40.5q-66 0 -105 38t-39 95.5z" />
<glyph unicode="&#xc0;" horiz-adv-x="1280" d="M25 0l471 1362h278l481 -1362h-266l-123 360h-479l-121 -360h-241zM352 1722q0 63 119 133l332 -321l-62 -84q-268 141 -309 168q-80 49 -80 104zM436 549h381l-184 584h-6z" />
<glyph unicode="&#xc1;" horiz-adv-x="1280" d="M25 0l471 1362h278l481 -1362h-266l-123 360h-479l-121 -360h-241zM436 549h381l-184 584h-6zM459 1536l332 322q119 -70 118 -136q0 -51 -82 -104q-33 -20 -307 -166z" />
<glyph unicode="&#xc2;" horiz-adv-x="1280" d="M25 0l471 1362h278l481 -1362h-266l-123 360h-479l-121 -360h-241zM299 1520q121 160 225 254q53 49 101 49q53 0 96 -43q143 -143 233 -258l-84 -72l-245 176l-242 -176zM436 549h381l-184 584h-6z" />
<glyph unicode="&#xc3;" horiz-adv-x="1280" d="M25 0l471 1362h278l481 -1362h-266l-123 360h-479l-121 -360h-241zM332 1657q76 59 172 59q55 0 143 -26.5t133 -26.5q57 0 127 37l17 -166q-70 -37 -140 -37q-47 0 -145 22.5t-137 22.5q-78 0 -152 -41zM436 549h381l-184 584h-6z" />
<glyph unicode="&#xc4;" horiz-adv-x="1280" d="M25 0l471 1362h278l481 -1362h-266l-123 360h-479l-121 -360h-241zM293 1602q0 53 36 88.5t95 35.5q55 0 92 -35.5t37 -88.5q0 -55 -37 -90t-94 -35t-93 35t-36 90zM436 549h381l-184 584h-6zM709 1602q0 53 35.5 88.5t93.5 35.5q55 0 92 -35.5t37 -88.5q0 -55 -36 -90 t-93 -35q-59 0 -94 35t-35 90z" />
<glyph unicode="&#xc5;" horiz-adv-x="1280" d="M25 0l473 1362q-51 57 -52 139q0 84 54.5 137.5t140.5 53.5q88 0 139 -52.5t51 -128.5q0 -92 -57 -149l481 -1362h-266l-123 360h-479l-121 -360h-241zM436 549h381l-184 584h-6zM567 1501q0 -86 74 -86q35 0 54.5 24.5t19.5 61.5q0 84 -74 84t-74 -84z" />
<glyph unicode="&#xc6;" horiz-adv-x="1687" d="M25 0l471 1362h1116v-217h-735l122 -342h531v-217h-479l131 -369h442v-217h-635l-131 381h-463l-129 -381h-241zM444 569h365l-180 555h-2z" />
<glyph unicode="&#xc7;" horiz-adv-x="1208" d="M92 674q0 156 37 279.5t97.5 202.5t141.5 132t165.5 75.5t177.5 22.5q295 0 467 -253l-179 -129q-137 172 -301 172q-160 0 -255 -128t-95 -358q0 -242 91 -375t274 -133q160 0 319 144l129 -164q-193 -180 -444 -187l-29 -110q84 -6 134 -48t50 -114 q0 -102 -71.5 -150.5t-169.5 -48.5q-100 0 -185 37l33 111q80 -27 137 -27q102 0 103 72q0 45 -46 61.5t-138 16.5l65 207q-240 31 -374 206t-134 486z" />
<glyph unicode="&#xc8;" horiz-adv-x="1042" d="M143 0v1362h822v-217h-572v-342h490v-217h-490v-369h586v-217h-836zM293 1722q0 63 119 133l331 -321l-61 -84q-268 141 -309 168q-80 49 -80 104z" />
<glyph unicode="&#xc9;" horiz-adv-x="1042" d="M143 0v1362h822v-217h-572v-342h490v-217h-490v-369h586v-217h-836zM365 1536l331 322q119 -70 119 -136q0 -51 -82 -104q-33 -20 -307 -166z" />
<glyph unicode="&#xca;" horiz-adv-x="1042" d="M143 0v1362h822v-217h-572v-342h490v-217h-490v-369h586v-217h-836zM219 1520q121 160 225 254q53 49 101 49q53 0 96 -43q143 -143 233 -258l-83 -72l-246 176l-242 -176z" />
<glyph unicode="&#xcb;" horiz-adv-x="1042" d="M143 0v1362h822v-217h-572v-342h490v-217h-490v-369h586v-217h-836zM209 1602q0 53 36 88.5t95 35.5q55 0 92 -35.5t37 -88.5q0 -55 -37 -90t-94 -35t-93 35t-36 90zM625 1602q0 53 35.5 88.5t93.5 35.5q55 0 92 -35.5t37 -88.5q0 -55 -36 -90t-93 -35q-59 0 -94 35 t-35 90z" />
<glyph unicode="&#xcc;" horiz-adv-x="544" d="M6 1722q0 63 119 133l332 -321l-62 -84q-268 141 -309 168q-80 49 -80 104zM147 0v1362h250v-1362h-250z" />
<glyph unicode="&#xcd;" horiz-adv-x="544" d="M92 1536l332 322q119 -70 119 -136q0 -51 -82 -104q-33 -20 -307 -166zM147 0v1362h250v-1362h-250z" />
<glyph unicode="&#xce;" horiz-adv-x="544" d="M-53 1520q121 160 225 254q53 49 100 49q53 0 97 -43q143 -143 233 -258l-84 -72l-246 176l-241 -176zM147 0v1362h250v-1362h-250z" />
<glyph unicode="&#xcf;" horiz-adv-x="544" d="M-63 1602q0 53 35.5 88.5t95.5 35.5q55 0 92 -35.5t37 -88.5q0 -55 -37 -90t-94.5 -35t-93 35t-35.5 90zM147 0v1362h250v-1362h-250zM352 1602q0 53 36 88.5t93 35.5q55 0 92 -35.5t37 -88.5q0 -55 -35.5 -90t-93.5 -35q-59 0 -94 35t-35 90z" />
<glyph unicode="&#xd0;" horiz-adv-x="1339" d="M20 588v196h144v578h444q301 0 470 -160t169 -473q0 -195 -51 -339t-140 -227t-198.5 -123t-239.5 -40h-454v588h-144zM414 197h209q176 0 274 127t98 368q0 471 -399 471h-182v-379h346v-196h-346v-391z" />
<glyph unicode="&#xd1;" horiz-adv-x="1363" d="M143 0v1362h252l574 -946h4v946h248v-1362h-240l-588 961h-4v-961h-246zM385 1657q76 59 172 59q55 0 143 -26.5t134 -26.5q57 0 127 37l16 -166q-70 -37 -139 -37q-47 0 -145.5 22.5t-137.5 22.5q-78 0 -152 -41z" />
<glyph unicode="&#xd2;" horiz-adv-x="1357" d="M92 678q0 188 53.5 330.5t142.5 222.5t192.5 117.5t215.5 37.5q119 0 218.5 -38.5t180.5 -119.5t126 -221.5t45 -328.5q0 -344 -158 -523.5t-434 -179.5q-279 0 -430.5 178.5t-151.5 524.5zM348 688q0 -506 340 -506q90 0 154.5 41t100.5 113t52.5 154.5t16.5 181.5 q0 86 -15.5 168t-49.5 160.5t-102.5 127t-160.5 48.5q-117 0 -195.5 -73t-109.5 -178.5t-31 -236.5zM434 1722q0 63 119 133l332 -321l-62 -84q-268 141 -309 168q-80 49 -80 104z" />
<glyph unicode="&#xd3;" horiz-adv-x="1357" d="M92 678q0 188 53.5 330.5t142.5 222.5t192.5 117.5t215.5 37.5q119 0 218.5 -38.5t180.5 -119.5t126 -221.5t45 -328.5q0 -344 -158 -523.5t-434 -179.5q-279 0 -430.5 178.5t-151.5 524.5zM348 688q0 -506 340 -506q90 0 154.5 41t100.5 113t52.5 154.5t16.5 181.5 q0 86 -15.5 168t-49.5 160.5t-102.5 127t-160.5 48.5q-117 0 -195.5 -73t-109.5 -178.5t-31 -236.5zM494 1536l331 322q119 -70 119 -136q0 -51 -82 -104q-33 -20 -307 -166z" />
<glyph unicode="&#xd4;" horiz-adv-x="1357" d="M92 678q0 188 53.5 330.5t142.5 222.5t192.5 117.5t215.5 37.5q119 0 218.5 -38.5t180.5 -119.5t126 -221.5t45 -328.5q0 -344 -158 -523.5t-434 -179.5q-279 0 -430.5 178.5t-151.5 524.5zM348 688q0 -506 340 -506q90 0 154.5 41t100.5 113t52.5 154.5t16.5 181.5 q0 86 -15.5 168t-49.5 160.5t-102.5 127t-160.5 48.5q-117 0 -195.5 -73t-109.5 -178.5t-31 -236.5zM365 1520q121 160 225 254q53 49 100 49q53 0 96 -43q143 -143 234 -258l-84 -72l-246 176l-241 -176z" />
<glyph unicode="&#xd5;" horiz-adv-x="1357" d="M92 678q0 188 53.5 330.5t142.5 222.5t192.5 117.5t215.5 37.5q119 0 218.5 -38.5t180.5 -119.5t126 -221.5t45 -328.5q0 -344 -158 -523.5t-434 -179.5q-279 0 -430.5 178.5t-151.5 524.5zM348 688q0 -506 340 -506q90 0 154.5 41t100.5 113t52.5 154.5t16.5 181.5 q0 86 -15.5 168t-49.5 160.5t-102.5 127t-160.5 48.5q-117 0 -195.5 -73t-109.5 -178.5t-31 -236.5zM391 1657q76 59 172 59q55 0 143.5 -26.5t133.5 -26.5q57 0 127 37l16 -166q-70 -37 -139 -37q-47 0 -145.5 22.5t-137.5 22.5q-78 0 -151 -41z" />
<glyph unicode="&#xd6;" horiz-adv-x="1357" d="M92 678q0 188 53.5 330.5t142.5 222.5t192.5 117.5t215.5 37.5q119 0 218.5 -38.5t180.5 -119.5t126 -221.5t45 -328.5q0 -344 -158 -523.5t-434 -179.5q-279 0 -430.5 178.5t-151.5 524.5zM348 1602q0 53 36 88.5t95 35.5q55 0 92 -35.5t37 -88.5q0 -55 -36.5 -90 t-94 -35t-93.5 35t-36 90zM348 688q0 -506 340 -506q90 0 154.5 41t100.5 113t52.5 154.5t16.5 181.5q0 86 -15.5 168t-49.5 160.5t-102.5 127t-160.5 48.5q-117 0 -195.5 -73t-109.5 -178.5t-31 -236.5zM764 1602q0 53 36 88.5t93 35.5q55 0 92 -35.5t37 -88.5 q0 -55 -36 -90t-93 -35q-59 0 -94 35t-35 90z" />
<glyph unicode="&#xd7;" d="M170 410l233 233l-233 234l147 147l234 -233l229 229l142 -141l-230 -232l232 -231l-148 -148l-231 232l-232 -232z" />
<glyph unicode="&#xd8;" horiz-adv-x="1357" d="M92 678q0 188 53.5 330.5t142.5 222.5t192.5 117.5t215.5 37.5q115 0 215 -36l84 176l183 -84l-97 -201q184 -184 185 -563q0 -344 -158 -523.5t-434 -179.5q-119 0 -219 35l-101 -215l-178 86l109 230q-193 180 -193 567zM348 688q0 -221 66 -344l385 809 q-55 23 -115 23q-117 0 -195.5 -73t-109.5 -178.5t-31 -236.5zM567 203q49 -20 121 -21q90 0 154.5 41t100.5 113t52.5 154.5t16.5 181.5q0 195 -66 327z" />
<glyph unicode="&#xd9;" horiz-adv-x="1288" d="M133 432v930h248v-918q0 -260 268 -260q117 0 186.5 63.5t69.5 186.5v928h250v-963q0 -199 -140.5 -311.5t-373.5 -112.5q-256 0 -382 109.5t-126 347.5zM387 1722q0 63 119 133l332 -321l-62 -84q-268 141 -309 168q-80 49 -80 104z" />
<glyph unicode="&#xda;" horiz-adv-x="1288" d="M133 432v930h248v-918q0 -260 268 -260q117 0 186.5 63.5t69.5 186.5v928h250v-963q0 -199 -140.5 -311.5t-373.5 -112.5q-256 0 -382 109.5t-126 347.5zM459 1536l332 322q119 -70 118 -136q0 -51 -82 -104q-33 -20 -307 -166z" />
<glyph unicode="&#xdb;" horiz-adv-x="1288" d="M133 432v930h248v-918q0 -260 268 -260q117 0 186.5 63.5t69.5 186.5v928h250v-963q0 -199 -140.5 -311.5t-373.5 -112.5q-256 0 -382 109.5t-126 347.5zM317 1520q121 160 226 254q53 49 100 49q53 0 96 -43q143 -143 234 -258l-84 -72l-246 176l-242 -176z" />
<glyph unicode="&#xdc;" horiz-adv-x="1288" d="M133 432v930h248v-918q0 -260 268 -260q117 0 186.5 63.5t69.5 186.5v928h250v-963q0 -199 -140.5 -311.5t-373.5 -112.5q-256 0 -382 109.5t-126 347.5zM311 1602q0 53 36 88.5t95 35.5q55 0 92 -35.5t37 -88.5q0 -55 -36.5 -90t-94 -35t-93.5 35t-36 90zM727 1602 q0 53 36 88.5t93 35.5q55 0 92 -35.5t37 -88.5q0 -55 -36 -90t-93 -35q-59 0 -94 35t-35 90z" />
<glyph unicode="&#xdd;" horiz-adv-x="1138" d="M0 1362h276l297 -592h9l292 592h265l-447 -842v-520h-250v520zM379 1536l332 322q119 -70 118 -136q0 -51 -81 -104q-33 -20 -308 -166z" />
<glyph unicode="&#xde;" horiz-adv-x="1167" d="M141 0v1362h250v-211h219q229 0 357.5 -107.5t128.5 -310.5q0 -227 -145.5 -347t-385.5 -120h-174v-266h-250zM391 465h148q299 0 299 244q0 147 -77 195t-245 48h-125v-487z" />
<glyph unicode="&#xdf;" horiz-adv-x="1196" d="M131 -430v1474q0 416 492 416q223 0 332.5 -83t109.5 -214q0 -59 -27.5 -110.5t-67.5 -87.5l-79 -70q-39 -33 -66.5 -67.5t-27.5 -69.5q0 -39 35.5 -75t88 -67.5t104.5 -69.5t88 -101.5t36 -145.5q0 -158 -105.5 -244t-271.5 -86q-170 0 -295 66l60 178q117 -63 223 -63 q147 0 147 135q0 53 -34.5 94t-85.5 71l-99 61q-49 32 -84 84t-35 121.5t41 131t91.5 100.5t91.5 90.5t41 100.5q0 137 -224 137q-236 0 -235 -219v-1487h-244z" />
<glyph unicode="&#xe0;" horiz-adv-x="1099" d="M76 471q0 276 136 433t396 157q174 0 365 -72v-792l18 -197h-211l-14 109l-8 2q-94 -137 -281 -138q-207 0 -304 133.5t-97 364.5zM317 479q0 -332 213 -332q90 0 145.5 54.5t55.5 124.5v530q-57 27 -153 27q-137 0 -199 -111t-62 -293zM352 1507q0 82 156 123l240 -393 l-80 -68q-225 201 -260 236q-56 57 -56 102z" />
<glyph unicode="&#xe1;" horiz-adv-x="1099" d="M76 471q0 276 136 433t396 157q174 0 365 -72v-792l18 -197h-211l-14 109l-8 2q-94 -137 -281 -138q-207 0 -304 133.5t-97 364.5zM317 479q0 -332 213 -332q90 0 145.5 54.5t55.5 124.5v530q-57 27 -153 27q-137 0 -199 -111t-62 -293zM430 1237l238 393 q156 -41 155 -123q0 -41 -55 -100q-23 -25 -258 -238z" />
<glyph unicode="&#xe2;" horiz-adv-x="1099" d="M76 471q0 276 136 433t396 157q174 0 365 -72v-792l18 -197h-211l-14 109l-8 2q-94 -137 -281 -138q-207 0 -304 133.5t-97 364.5zM252 1257q125 184 211 287q55 68 112 68q35 0 57.5 -14.5t55.5 -51.5q113 -135 213 -286l-84 -70l-242 213l-239 -211zM317 479 q0 -332 213 -332q90 0 145.5 54.5t55.5 124.5v530q-57 27 -153 27q-137 0 -199 -111t-62 -293z" />
<glyph unicode="&#xe3;" horiz-adv-x="1099" d="M76 471q0 276 136 433t396 157q174 0 365 -72v-792l18 -197h-211l-14 109l-8 2q-94 -137 -281 -138q-207 0 -304 133.5t-97 364.5zM293 1432q80 59 172 59q55 0 143 -26.5t133 -26.5q63 0 127 37l17 -166q-68 -39 -140 -39q-47 0 -145 23.5t-137 23.5q-74 0 -152 -43z M317 479q0 -332 213 -332q90 0 145.5 54.5t55.5 124.5v530q-57 27 -153 27q-137 0 -199 -111t-62 -293z" />
<glyph unicode="&#xe4;" horiz-adv-x="1099" d="M76 471q0 276 136 433t396 157q174 0 365 -72v-792l18 -197h-211l-14 109l-8 2q-94 -137 -281 -138q-207 0 -304 133.5t-97 364.5zM258 1364q0 53 36 89t95 36q55 0 92 -36t37 -89q0 -55 -37 -91t-94 -36t-93 36t-36 91zM317 479q0 -332 213 -332q90 0 145.5 54.5 t55.5 124.5v530q-57 27 -153 27q-137 0 -199 -111t-62 -293zM664 1364q0 53 35.5 89t93.5 36q55 0 92 -36t37 -89q0 -55 -36 -91t-93 -36q-59 0 -94 36t-35 91z" />
<glyph unicode="&#xe5;" horiz-adv-x="1099" d="M76 471q0 276 136 433t396 157q174 0 365 -72v-792l18 -197h-211l-14 109l-8 2q-94 -137 -281 -138q-207 0 -304 133.5t-97 364.5zM317 479q0 -332 213 -332q90 0 145.5 54.5t55.5 124.5v530q-57 27 -153 27q-137 0 -199 -111t-62 -293zM389 1346q0 84 54.5 137t140.5 53 q88 0 139 -52t51 -128q0 -88 -53 -144.5t-143 -56.5q-88 0 -138.5 54.5t-50.5 136.5zM510 1346q0 -86 74 -86q35 0 54 24.5t19 61.5q0 84 -73.5 84t-73.5 -84z" />
<glyph unicode="&#xe6;" horiz-adv-x="1513" d="M76 477q0 272 135 428t387 156q150 0 293 -70q109 70 254 70q152 0 238.5 -75t86.5 -210q0 -90 -43 -157.5t-105 -104.5t-147 -59.5t-149.5 -29.5t-134.5 -7q4 -115 70.5 -188.5t185.5 -73.5q127 0 260 90l74 -162q-47 -39 -143.5 -77t-225.5 -38q-209 0 -324 115 q-141 -117 -303 -117q-113 0 -194.5 41t-126.5 114t-66.5 161t-21.5 194zM317 500q0 -350 220 -351q100 0 165 66q-57 115 -57 279q0 207 98 348q-94 43 -176 43q-127 0 -188.5 -109.5t-61.5 -275.5zM883 575q49 0 106.5 8.5t119.5 27t103 59.5t41 96t-33.5 88t-88.5 33 q-115 0 -179.5 -92.5t-68.5 -219.5z" />
<glyph unicode="&#xe7;" horiz-adv-x="931" d="M76 510q0 147 43 259t113.5 172t150.5 90t166 30q244 0 377 -195l-154 -127q-102 127 -219 127q-106 0 -170 -88t-64 -258q0 -166 65 -260t196 -94q115 0 235 88l92 -164q-139 -113 -344 -119l-26 -106q84 -6 134 -48t50 -114q0 -102 -71.5 -150.5t-170.5 -48.5 q-100 0 -184 37l33 111q80 -27 137 -27q102 0 102 72q0 45 -46 61.5t-138 16.5l66 205q-180 29 -276.5 165t-96.5 365z" />
<glyph unicode="&#xe8;" horiz-adv-x="946" d="M76 494q0 -244 116.5 -384.5t360.5 -140.5q125 0 222 39t138 76l-75 162q-127 -90 -258 -90q-123 0 -187.5 75.5t-70.5 186.5q70 0 134 7t149 29.5t147.5 59.5t105.5 104.5t43 157.5q0 135 -87 210t-239 75q-233 0 -366 -164.5t-133 -402.5zM297 1507q0 82 156 123 l239 -393l-80 -68q-225 201 -260 236q-55 57 -55 102zM313 575q4 127 68.5 219.5t179.5 92.5q55 0 89 -33t34 -88t-41 -96t-103.5 -59.5t-120 -27t-106.5 -8.5z" />
<glyph unicode="&#xe9;" horiz-adv-x="946" d="M76 494q0 238 133 402.5t366 164.5q152 0 239 -75t87 -210q0 -90 -43 -157.5t-105.5 -104.5t-147.5 -59.5t-149.5 -29.5t-133.5 -7q6 -111 70.5 -186.5t187.5 -75.5q131 0 258 90l75 -162q-41 -37 -138 -76t-222 -39q-244 0 -360.5 140.5t-116.5 384.5zM313 575 q49 0 106.5 8.5t120 27t103.5 59.5t41 96t-34 88t-89 33q-115 0 -179.5 -92.5t-68.5 -219.5zM358 1237l238 393q156 -41 156 -123q0 -41 -56 -100q-23 -25 -258 -238z" />
<glyph unicode="&#xea;" horiz-adv-x="946" d="M76 494q0 -244 116.5 -384.5t360.5 -140.5q125 0 222 39t138 76l-75 162q-127 -90 -258 -90q-123 0 -187.5 75.5t-70.5 186.5q70 0 134 7t149 29.5t147.5 59.5t105.5 104.5t43 157.5q0 135 -87 210t-239 75q-233 0 -366 -164.5t-133 -402.5zM217 1257q125 184 211 287 q55 68 113 68q35 0 57.5 -14.5t54.5 -51.5q113 -135 213 -286l-84 -70l-241 213l-240 -211zM313 575q4 127 68.5 219.5t179.5 92.5q55 0 89 -33t34 -88t-41 -96t-103.5 -59.5t-120 -27t-106.5 -8.5z" />
<glyph unicode="&#xeb;" horiz-adv-x="946" d="M76 494q0 -244 116.5 -384.5t360.5 -140.5q125 0 222 39t138 76l-75 162q-127 -90 -258 -90q-123 0 -187.5 75.5t-70.5 186.5q70 0 134 7t149 29.5t147.5 59.5t105.5 104.5t43 157.5q0 135 -87 210t-239 75q-233 0 -366 -164.5t-133 -402.5zM205 1364q0 53 35.5 89 t95.5 36q55 0 92 -36t37 -89q0 -55 -37 -91t-94.5 -36t-93 36t-35.5 91zM313 575q4 127 68.5 219.5t179.5 92.5q55 0 89 -33t34 -88t-41 -96t-103.5 -59.5t-120 -27t-106.5 -8.5zM610 1364q0 53 36 89t93 36q55 0 92 -36t37 -89q0 -55 -35.5 -91t-93.5 -36q-59 0 -94 36 t-35 91z" />
<glyph unicode="&#xec;" horiz-adv-x="499" d="M39 1507q0 82 156 123l239 -393l-80 -68q-225 201 -260 236q-55 57 -55 102zM133 0v1030h244v-1030h-244z" />
<glyph unicode="&#xed;" horiz-adv-x="499" d="M86 1237l238 393q156 -41 155 -123q0 -41 -55 -100q-23 -25 -258 -238zM133 0v1030h244v-1030h-244z" />
<glyph unicode="&#xee;" horiz-adv-x="499" d="M-68 1257q125 184 211 287q55 68 113 68q35 0 57.5 -14.5t55.5 -51.5q113 -135 213 -286l-84 -70l-242 213l-240 -211zM133 0v1030h244v-1030h-244z" />
<glyph unicode="&#xef;" horiz-adv-x="499" d="M-76 1364q0 53 36 89t95 36q55 0 92 -36t37 -89q0 -55 -36.5 -91t-94 -36t-93.5 36t-36 91zM133 0v1030h244v-1030h-244zM330 1364q0 53 35.5 89t93.5 36q55 0 92 -36t37 -89q0 -55 -36 -91t-93 -36q-59 0 -94 36t-35 91z" />
<glyph unicode="&#xf0;" horiz-adv-x="1038" d="M61 428q0 213 112 348t304 135q133 0 234 -65q-39 143 -127 248l-170 -117l-95 133l136 92q-90 55 -205 76l49 190q205 -27 350 -133l172 117l92 -133l-137 -96q203 -252 203 -658q0 -268 -117 -431t-364 -163q-223 0 -330 125t-107 332zM313 436q0 -129 50.5 -199.5 t144.5 -70.5q111 0 165 101.5t54 267.5q0 84 -2 112q-92 76 -213 76q-199 0 -199 -287z" />
<glyph unicode="&#xf1;" horiz-adv-x="1101" d="M115 1030h204l21 -129q113 160 315 160q156 0 241 -89t85 -267v-705h-244v651q0 109 -31.5 165t-121.5 56t-149.5 -62t-59.5 -144v-666h-244v852zM274 1432q80 59 172 59q55 0 143.5 -26.5t133.5 -26.5q63 0 127 37l16 -166q-68 -39 -139 -39q-47 0 -145.5 23.5 t-137.5 23.5q-76 0 -151 -43z" />
<glyph unicode="&#xf2;" horiz-adv-x="1064" d="M74 516q0 -272 116.5 -409.5t327.5 -137.5q213 0 346 145.5t133 428.5q0 135 -32.5 234.5t-79.5 151.5t-112.5 83.5t-116 40t-105.5 8.5q-86 0 -165 -26.5t-151.5 -85t-116.5 -170t-44 -263.5zM309 1507q0 82 156 123l240 -393l-80 -68q-225 201 -260 236q-56 57 -56 102 zM322 545q0 154 54 245t163 91q209 0 209 -371q0 -168 -52.5 -264t-160.5 -96q-213 0 -213 395z" />
<glyph unicode="&#xf3;" horiz-adv-x="1064" d="M74 516q0 152 44 263.5t116.5 170t151.5 85t165 26.5q55 0 105.5 -8.5t116 -40t112.5 -83.5t79.5 -151.5t32.5 -234.5q0 -283 -133 -428.5t-346 -145.5q-211 0 -327.5 137.5t-116.5 409.5zM322 545q0 -395 213 -395q109 0 161 96t52 264q0 371 -209 371q-109 0 -163 -91 t-54 -245zM387 1237l238 393q156 -41 155 -123q0 -41 -55 -100q-23 -25 -258 -238z" />
<glyph unicode="&#xf4;" horiz-adv-x="1064" d="M74 516q0 -272 116.5 -409.5t327.5 -137.5q213 0 346 145.5t133 428.5q0 135 -32.5 234.5t-79.5 151.5t-112.5 83.5t-116 40t-105.5 8.5q-86 0 -165 -26.5t-151.5 -85t-116.5 -170t-44 -263.5zM217 1257q125 184 211 287q55 68 113 68q35 0 57.5 -14.5t54.5 -51.5 q113 -135 213 -286l-84 -70l-241 213l-240 -211zM322 545q0 154 54 245t163 91q209 0 209 -371q0 -168 -52.5 -264t-160.5 -96q-213 0 -213 395z" />
<glyph unicode="&#xf5;" horiz-adv-x="1064" d="M74 516q0 152 44 263.5t116.5 170t151.5 85t165 26.5q55 0 105.5 -8.5t116 -40t112.5 -83.5t79.5 -151.5t32.5 -234.5q0 -283 -133 -428.5t-346 -145.5q-211 0 -327.5 137.5t-116.5 409.5zM246 1432q80 59 172 59q55 0 143 -26.5t133 -26.5q63 0 127 37l17 -166 q-68 -39 -140 -39q-47 0 -145 23.5t-137 23.5q-76 0 -152 -43zM322 545q0 -395 213 -395q109 0 161 96t52 264q0 371 -209 371q-109 0 -163 -91t-54 -245z" />
<glyph unicode="&#xf6;" horiz-adv-x="1064" d="M74 516q0 -272 116.5 -409.5t327.5 -137.5q213 0 346 145.5t133 428.5q0 135 -32.5 234.5t-79.5 151.5t-112.5 83.5t-116 40t-105.5 8.5q-86 0 -165 -26.5t-151.5 -85t-116.5 -170t-44 -263.5zM209 1364q0 53 36 89t95 36q55 0 92 -36t37 -89q0 -55 -37 -91t-94 -36 t-93 36t-36 91zM322 545q0 154 54 245t163 91q209 0 209 -371q0 -168 -52.5 -264t-160.5 -96q-213 0 -213 395zM614 1364q0 53 36 89t93 36q55 0 92 -36t37 -89q0 -55 -35.5 -91t-93.5 -36q-59 0 -94 36t-35 91z" />
<glyph unicode="&#xf7;" d="M133 545v196h830v-196h-830zM418 262q0 57 35.5 97t95.5 40q61 0 98 -36.5t37 -98t-37 -101.5t-96 -40q-63 0 -98 38t-35 101zM418 1034q0 57 35.5 97t95.5 40q61 0 98 -36.5t37 -98t-37 -101.5t-96 -40q-63 0 -98 38t-35 101z" />
<glyph unicode="&#xf8;" horiz-adv-x="1064" d="M74 516q0 152 44 263.5t116.5 170t151.5 85t165 26.5q92 0 166 -25l74 150l149 -72l-82 -160q139 -133 139 -411q0 -283 -133 -428.5t-346 -145.5q-88 0 -162 25l-82 -166l-147 74l88 178q-141 135 -141 436zM322 545q0 -145 22 -228l274 547q-37 16 -79 17 q-109 0 -163 -91t-54 -245zM453 166q31 -16 82 -16q109 0 161 96t52 264q0 121 -21 201z" />
<glyph unicode="&#xf9;" horiz-adv-x="1105" d="M127 332v698h244v-653q0 -106 32.5 -161.5t126.5 -55.5q82 0 142.5 60.5t60.5 135.5v674h244v-858l16 -172h-209l-14 121h-8q-102 -150 -297 -150q-338 1 -338 361zM299 1507q0 82 156 123l239 -393l-80 -68q-225 201 -260 236q-55 57 -55 102z" />
<glyph unicode="&#xfa;" horiz-adv-x="1105" d="M127 332v698h244v-653q0 -106 32.5 -161.5t126.5 -55.5q82 0 142.5 60.5t60.5 135.5v674h244v-858l16 -172h-209l-14 121h-8q-102 -150 -297 -150q-338 1 -338 361zM397 1237l238 393q156 -41 156 -123q0 -41 -56 -100q-23 -25 -258 -238z" />
<glyph unicode="&#xfb;" horiz-adv-x="1105" d="M127 332v698h244v-653q0 -106 32.5 -161.5t126.5 -55.5q82 0 142.5 60.5t60.5 135.5v674h244v-858l16 -172h-209l-14 121h-8q-102 -150 -297 -150q-338 1 -338 361zM221 1257q125 184 211 287q55 68 113 68q35 0 57.5 -14.5t54.5 -51.5q113 -135 213 -286l-84 -70 l-241 213l-240 -211z" />
<glyph unicode="&#xfc;" horiz-adv-x="1105" d="M127 332v698h244v-653q0 -106 32.5 -161.5t126.5 -55.5q82 0 142.5 60.5t60.5 135.5v674h244v-858l16 -172h-209l-14 121h-8q-102 -150 -297 -150q-338 1 -338 361zM219 1364q0 53 36 89t95 36q55 0 92 -36t37 -89q0 -55 -37 -91t-94 -36t-93 36t-36 91zM625 1364 q0 53 35.5 89t93.5 36q55 0 92 -36t37 -89q0 -55 -36 -91t-93 -36q-59 0 -94 36t-35 91z" />
<glyph unicode="&#xfd;" horiz-adv-x="1097" d="M127 406v624h244v-581q0 -119 31.5 -175.5t142.5 -56.5q88 0 138 47t50 133v633h242v-901q0 -176 -17 -285q-29 -186 -141 -287.5t-301 -101.5q-162 0 -247 72t-85 197q0 199 215 350q-272 39 -272 332zM383 1237l238 393q156 -41 155 -123q0 -41 -55 -100 q-23 -25 -258 -238zM408 -238q0 -131 137 -131q190 0 190 318v172q-158 -76 -242.5 -158t-84.5 -201z" />
<glyph unicode="&#xfe;" horiz-adv-x="1085" d="M123 -430v1853h244v-391q119 29 211 29q434 0 434 -537q0 -266 -115 -409.5t-319 -143.5q-115 0 -211 56v-457h-244zM367 223q84 -70 188 -69q100 0 156.5 91t56.5 261q0 113 -16.5 187.5t-73.5 127.5t-158 53q-82 0 -153 -22v-629z" />
<glyph unicode="&#xff;" horiz-adv-x="1097" d="M127 406v624h244v-581q0 -119 31.5 -175.5t142.5 -56.5q88 0 138 47t50 133v633h242v-901q0 -176 -17 -285q-29 -186 -141 -287.5t-301 -101.5q-162 0 -247 72t-85 197q0 199 215 350q-272 39 -272 332zM221 1364q0 53 36 89t95 36q55 0 92 -36t37 -89q0 -55 -36.5 -91 t-94 -36t-93.5 36t-36 91zM408 -238q0 -131 137 -131q190 0 190 318v172q-158 -76 -242.5 -158t-84.5 -201zM627 1364q0 53 35.5 89t93.5 36q55 0 92 -36t37 -89q0 -55 -36 -91t-93 -36q-59 0 -94 36t-35 91z" />
<glyph unicode="&#x152;" horiz-adv-x="1796" d="M92 678q0 152 37 274.5t97.5 201.5t142.5 132t169 75.5t179 22.5q102 0 203 -22h798v-217h-571v-342h489v-217h-489v-369h586v-217h-813q-119 -29 -230 -29q-285 0 -441.5 180.5t-156.5 526.5zM348 688q0 -78 9.5 -145.5t35 -137t66.5 -117.5t107.5 -79t154.5 -31 q100 0 176 33v926q-90 39 -180 39q-186 0 -277.5 -141.5t-91.5 -346.5z" />
<glyph unicode="&#x153;" horiz-adv-x="1609" d="M74 514q0 154 43 265.5t113.5 170t147.5 85t161 26.5q246 0 338 -201q127 201 362 201q152 0 239 -75t87 -210q0 -90 -43 -157.5t-105.5 -104.5t-147.5 -59.5t-149.5 -29.5t-134.5 -7q6 -111 70.5 -186.5t187.5 -75.5q131 0 258 90l76 -162q-41 -37 -138.5 -76 t-221.5 -39q-254 0 -365 191q-53 -92 -144.5 -141.5t-199.5 -49.5q-205 0 -319.5 136.5t-114.5 408.5zM322 543q0 -393 213 -393t213 360q0 371 -209 371q-109 0 -163 -91t-54 -247zM977 575q49 0 106.5 8.5t120 27t103.5 59.5t41 96t-34 88t-89 33q-115 0 -179.5 -92.5 t-68.5 -219.5z" />
<glyph unicode="&#x178;" horiz-adv-x="1138" d="M0 1362l442 -842v-520h250v520l447 842h-265l-292 -592h-9l-297 592h-276zM233 1602q0 53 36 88.5t96 35.5q55 0 92 -35.5t37 -88.5q0 -55 -37 -90t-94.5 -35t-93.5 35t-36 90zM649 1602q0 53 36 88.5t93 35.5q55 0 92 -35.5t37 -88.5q0 -55 -35.5 -90t-93.5 -35 q-59 0 -94 35t-35 90z" />
<glyph unicode="&#x2c6;" horiz-adv-x="1024" d="M184 1257q125 184 211 287q55 68 113 68q35 0 57.5 -14.5t55.5 -51.5q113 -135 213 -286l-84 -70l-242 213l-240 -211z" />
<glyph unicode="&#x2dc;" horiz-adv-x="1024" d="M211 1432q80 59 172 59q55 0 143 -26.5t133 -26.5q63 0 127 37l17 -166q-68 -39 -139 -39q-47 0 -145.5 23.5t-137.5 23.5q-74 0 -152 -43z" />
<glyph unicode="&#x2013;" horiz-adv-x="1024" d="M0 500v170h1024v-170h-1024z" />
<glyph unicode="&#x2014;" horiz-adv-x="2048" d="M0 500v170h2048v-170h-2048z" />
<glyph unicode="&#x2018;" horiz-adv-x="442" d="M76 1075q0 117 203 428l133 -49l-119 -477q-37 -4 -64 -4q-153 0 -153 102z" />
<glyph unicode="&#x2019;" horiz-adv-x="434" d="M72 999l104 484q43 5 73 4h19q131 -8 131 -101q0 -115 -202 -428z" />
<glyph unicode="&#x201a;" horiz-adv-x="464" d="M55 -260q37 276 64 379q29 109 98 108q86 0 176 -77l-211 -451z" />
<glyph unicode="&#x201c;" horiz-adv-x="776" d="M70 1075q0 117 202 428l134 -49l-119 -477q-37 -4 -64 -4q-153 0 -153 102zM410 1075q0 117 202 428l133 -49l-118 -477q-37 -4 -64 -4q-153 0 -153 102z" />
<glyph unicode="&#x201d;" horiz-adv-x="774" d="M72 999l104 484q43 5 73 4h19q131 -8 131 -101q0 -115 -202 -428zM412 999l104 484q43 5 73 4h19q131 -8 131 -101q0 -115 -202 -428z" />
<glyph unicode="&#x201e;" horiz-adv-x="804" d="M55 -260q37 276 64 379q29 109 98 108q86 0 176 -77l-211 -451zM395 -260q37 276 64 379q29 109 98 108q86 0 176 -77l-211 -451z" />
<glyph unicode="&#x2022;" horiz-adv-x="1024" d="M274 635q0 113 67 182.5t171 69.5t171 -69.5t67 -182.5q0 -115 -67 -184.5t-171 -69.5t-171 69.5t-67 184.5z" />
<glyph unicode="&#x2026;" horiz-adv-x="1611" d="M143 109q0 61 38 100t102 39q68 0 106.5 -38t38.5 -99.5t-38 -101.5t-101 -40q-70 0 -108 38.5t-38 101.5zM672 109q0 61 38 100t101 39q68 0 106.5 -38t38.5 -99.5t-37.5 -101.5t-101.5 -40q-70 0 -107.5 38.5t-37.5 101.5zM1184 109q0 61 38 100t101 39q68 0 106.5 -38 t38.5 -99.5t-37.5 -101.5t-101.5 -40q-70 0 -107.5 38.5t-37.5 101.5z" />
<glyph unicode="&#x2039;" horiz-adv-x="667" d="M104 545q0 41 60 100q139 133 338 283l94 -92l-256 -297l240 -332l-95 -86q-92 76 -203.5 183.5t-150.5 168.5q-27 39 -27 72z" />
<glyph unicode="&#x203a;" horiz-adv-x="667" d="M72 836l92 92q180 -135 340 -283q59 -59 59 -100q0 -33 -26 -72q-39 -61 -152 -169.5t-205 -182.5l-94 86l240 332z" />
<glyph unicode="&#x20ac;" d="M53 696v168h185q-59 70 -60 160q0 133 103.5 227.5t318.5 94.5q266 0 475 -179l-112 -151q-98 72 -176 106.5t-175 34.5q-186 0 -186 -151q0 -141 158 -142h360v-168h-891zM53 453h201q-76 -70 -76 -179q0 -131 99.5 -217t328.5 -86q258 0 469 133l-84 166 q-176 -109 -350 -108q-215 0 -215 151q0 66 44 103t114 37h360v168h-891v-168z" />
<glyph unicode="&#x2122;" horiz-adv-x="1413" d="M31 1221v141h544v-141h-194v-547h-164v547h-186zM627 674l43 688h168l151 -455l158 455h164l41 -688h-148l-20 426l-135 -377h-121l-133 375l-23 -424h-145z" />
<glyph unicode="&#xe000;" horiz-adv-x="1030" d="M0 1030h1030v-1030h-1030v1030z" />
<glyph unicode="&#xfb01;" horiz-adv-x="1075" d="M131 -430v1517q0 76 13.5 134.5t50 117t115.5 90t198 31.5q184 0 373 -92l-60 -162q-158 70 -274 70q-88 0 -130 -41t-42 -129v-76h577v-1030h-243v840h-334v-1270h-244z" />
<glyph unicode="&#xfb02;" horiz-adv-x="1243" d="M131 -430v1517q0 78 13.5 135.5t49 116t114.5 90t196 31.5q217 0 452 -84v-1040q0 -96 25 -135t86 -39q53 0 129 33l53 -164q-98 -61 -243 -62q-80 0 -136.5 19.5t-86 46t-46 73t-20.5 84t-4 93.5v555h-338v-1270h-244zM375 1030h338v211q-94 35 -178 35q-86 0 -123 -40 t-37 -130v-76z" />
<glyph unicode="&#xfb03;" horiz-adv-x="1656" d="M131 -430v1538q0 78 13.5 135t49 115.5t114.5 90.5t196 32q156 0 315 -76q96 76 271 76q184 0 372 -92l-59 -162q-158 70 -275 69q-88 0 -130 -41t-42 -129v-96h578v-1030h-244v840h-334v-1270h-243v1270h-338v-1270h-244zM375 1030h338v78q0 82 16 137q-102 51 -194 51 q-86 0 -123 -39.5t-37 -130.5v-96z" />
<glyph unicode="&#xfb04;" horiz-adv-x="1826" d="M131 -430v1538q0 78 13.5 135t49 115.5t114.5 90.5t196 32q164 0 323 -76q121 76 287 76q195 0 426 -82v-1063q0 -96 24.5 -135t86.5 -39q53 0 129 33l53 -164q-98 -61 -244 -62q-80 0 -136 19.5t-86 46t-46 73t-20.5 84t-4.5 93.5v555h-338v-1270h-243v1270h-340v-1270 h-244zM375 1030h340v78q0 82 18 137q-106 51 -198 51q-90 0 -125 -44t-35 -148v-74zM958 1030h338v232q-94 35 -178 34q-160 0 -160 -170v-96z" />
</font>
</defs>
</svg>
