<?xml version="1.0" standalone="no"?>
<!DOCTYPE svg PUBLIC "-//W3C//DTD SVG 1.1//EN" "http://www.w3.org/Graphics/SVG/1.1/DTD/svg11.dtd" >
<svg xmlns="http://www.w3.org/2000/svg">
<metadata>
This is a custom SVG webfont generated by Font Squirrel.
Copyright   : Copyright c 2008 by TypeTogether All rights reserved
Designer    : Veronika Burian Jos Scaglione
Foundry     : TypeTogether
Foundry URL : wwwtypetogethercom
</metadata>
<defs>
<font id="BreeLight" horiz-adv-x="1095" >
<font-face units-per-em="2048" ascent="1475" descent="-573" />
<missing-glyph horiz-adv-x="450" />
<glyph unicode=" "  horiz-adv-x="450" />
<glyph unicode="&#x09;" horiz-adv-x="450" />
<glyph unicode="&#xa0;" horiz-adv-x="450" />
<glyph unicode="!" horiz-adv-x="534" d="M158 82q0 47 32.5 80t77.5 33q53 0 86 -31t33 -80t-31.5 -83t-81.5 -34q-53 0 -84.5 33t-31.5 82zM190 1085v265q0 74 82 73q49 0 67.5 -19.5t18.5 -55.5v-263l-34 -747h-101z" />
<glyph unicode="&#x22;" horiz-adv-x="716" d="M135 1362h156l-17 -459h-118zM424 1362h158l-19 -459h-119z" />
<glyph unicode="#" horiz-adv-x="1103" d="M27 330v114h239l31 347h-231v110h241l29 338h127l-31 -338h252l31 338h127l-31 -338h223v-110h-233l-31 -347h225v-114h-233l-29 -330h-127l29 330h-252l-29 -330h-127l29 330h-229zM391 444h254l31 347h-252z" />
<glyph unicode="$" d="M90 141l68 133q152 -102 327 -114v475q-68 20 -108.5 34.5t-96 44t-86 63.5t-53 88.5t-22.5 123.5q0 152 98 244t268 108v189h125v-189q227 -23 383 -178l-90 -108q-143 125 -293 147v-444q86 -27 138.5 -48.5t114 -62.5t91 -103.5t29.5 -148.5q0 -170 -96 -264 t-277 -111v-241h-125v237q-125 6 -237.5 46t-157.5 79zM287 1006q0 -82 51 -129.5t147 -79.5v405q-198 -20 -198 -196zM610 162q209 31 209 213q0 88 -54 138t-155 85v-436z" />
<glyph unicode="%" horiz-adv-x="1609" d="M68 969q0 176 87 276.5t234 100.5q143 0 224 -92.5t81 -272.5t-82 -281.5t-235 -101.5q-150 0 -229.5 95.5t-79.5 275.5zM201 967q0 -133 50 -199t130 -66q78 0 129 67t51 206q0 135 -49 200.5t-127 65.5q-86 0 -135 -69.5t-49 -204.5zM444 49l598 1284l123 -53 l-602 -1286zM920 348q0 174 87 274.5t234 100.5q143 0 224 -91t81 -272q0 -182 -82 -282.5t-235 -100.5q-150 0 -229.5 95.5t-79.5 275.5zM1053 344q0 -131 50 -196.5t130 -65.5t130 65.5t50 204.5q0 135 -48 202t-128 67q-86 0 -135 -71t-49 -206z" />
<glyph unicode="&#x26;" horiz-adv-x="1624" d="M147 559q0 227 142.5 387t374.5 160q125 0 207.5 -63.5t82.5 -178.5q0 -121 -100 -211q324 123 446 559l158 -47q-66 -219 -176.5 -364.5t-300.5 -222.5q-219 -90 -672 -95q20 -188 133 -281t279 -93q186 0 323.5 111.5t172.5 328.5h315v-123h-195q-53 -195 -208.5 -324 t-415.5 -129q-131 0 -232.5 37t-163 94.5t-101.5 137.5t-54.5 156.5t-14.5 160.5zM305 604q236 6 356.5 62.5t120.5 181.5q0 51 -32.5 91t-110.5 40q-119 0 -217.5 -97.5t-116.5 -277.5z" />
<glyph unicode="'" horiz-adv-x="428" d="M135 1362h156l-17 -459h-118z" />
<glyph unicode="(" horiz-adv-x="630" d="M176 565q0 434 254 897l131 -65q-225 -444 -225 -832q0 -377 221 -831l-131 -60q-250 461 -250 891z" />
<glyph unicode=")" horiz-adv-x="630" d="M59 -260q225 444 226 831q0 377 -222 832l132 59q250 -461 249 -891q0 -434 -254 -897z" />
<glyph unicode="*" horiz-adv-x="821" d="M76 1311q15 39 63 39q30 0 72 -15q82 -31 135 -123q-56 -23 -108 -23q-39 0 -76 13q-90 32 -91 84q1 12 5 25zM190 918q-21 19 -21 45q0 38 44 92q57 66 162 84q2 -104 -53 -176q-50 -61 -92 -61q-21 0 -40 16zM340 1432q0 117 72 116q70 0 69 -116q0 -88 -69 -170 q-72 80 -72 170zM449 1139q104 -18 161 -84q44 -53 44 -92q0 -27 -21 -45q-19 -16 -40 -16q-41 0 -91 61q-55 72 -53 176zM477 1212q53 92 135 123q42 15 72 15q48 0 64 -39q4 -13 4 -25q0 -52 -90 -84q-37 -13 -76 -13q-53 0 -109 23z" />
<glyph unicode="+" d="M125 586v137h350v354h143v-354h351v-137h-351v-355h-143v355h-350z" />
<glyph unicode="," horiz-adv-x="444" d="M74 -250q31 250 55 359q12 57 30.5 81.5t53.5 24.5q72 0 137 -65l-190 -426z" />
<glyph unicode="-" horiz-adv-x="659" d="M61 530v136h537v-136h-537z" />
<glyph unicode="." horiz-adv-x="425" d="M94 92q0 51 33 85t84 34q55 0 88 -32t33 -85t-32 -87t-83 -34q-57 0 -90 32t-33 87z" />
<glyph unicode="/" horiz-adv-x="819" d="M16 -154l652 1678l143 -51l-655 -1680z" />
<glyph unicode="0" d="M92 662q0 342 123 513t344 171q444 0 445 -674q0 -356 -115 -524t-346 -168q-227 0 -339 164t-112 518zM256 641q0 -291 75 -410.5t218 -119.5q68 0 118 25.5t91 87t62.5 173t21.5 271.5q0 303 -75 423.5t-216 120.5q-145 0 -220 -130t-75 -441z" />
<glyph unicode="1" horiz-adv-x="864" d="M55 1081l387 238h158l-10 -143v-1047h248v-129h-664v129h258v1018l-317 -168z" />
<glyph unicode="2" horiz-adv-x="1036" d="M90 0v117l463 545q96 115 130 177t34 152q0 102 -60.5 158.5t-156.5 56.5q-145 0 -307 -149l-93 102q84 84 196 135.5t230 51.5q170 0 263.5 -93.5t93.5 -248.5q0 -182 -172 -385l-420 -486h667v-133h-868z" />
<glyph unicode="3" horiz-adv-x="1052" d="M78 1147q84 86 206 142.5t253 56.5q174 0 260 -87.5t86 -220.5q0 -193 -164 -309q186 -160 186 -360q0 -164 -111.5 -278t-326.5 -114q-109 0 -219.5 30t-159.5 67l53 129q158 -90 328 -90q125 0 198.5 67.5t73.5 171.5q0 164 -149 293q-68 -33 -232 -76l-43 123 q213 53 307.5 122t94.5 200q0 94 -52.5 144t-154.5 50q-166 0 -346 -159z" />
<glyph unicode="4" horiz-adv-x="1062" d="M86 342v127l416 874l129 -65l-385 -807h428v145l59 289h96v-434h197v-129h-197v-342h-161v342h-582z" />
<glyph unicode="5" horiz-adv-x="1011" d="M53 84l56 125q172 -98 335 -98q145 0 214 71.5t69 182.5q0 297 -571 297l84 657h641v-133h-510l-56 -402q113 -4 209.5 -27.5t181.5 -68.5t134 -127t49 -190q0 -160 -107.5 -277t-335.5 -117q-115 0 -230.5 35t-162.5 72z" />
<glyph unicode="6" d="M129 561q0 692 631 807l31 -125q-221 -35 -348.5 -177t-143.5 -341q156 104 326 104q168 0 263 -107.5t95 -287.5q0 -195 -112.5 -327t-317.5 -132q-221 0 -322.5 162t-101.5 424zM289 596l-2 -57q0 -101 18 -185q23 -106 87.5 -178t164.5 -72q121 0 193.5 88.5 t72.5 237.5q0 125 -62.5 202t-174.5 77q-74 0 -163 -35t-134 -78z" />
<glyph unicode="7" horiz-adv-x="915" d="M66 1186v133h833v-123q-143 -125 -241.5 -270.5t-145.5 -297t-65.5 -280.5t-18.5 -276v-72h-166v88q0 657 436 1098h-632z" />
<glyph unicode="8" horiz-adv-x="1089" d="M131 315q0 139 83 235.5t189 154.5q-63 37 -106 70.5t-82 99t-39 145.5q0 137 105.5 231.5t269.5 94.5q180 0 271 -87.5t91 -207.5q0 -184 -215 -344q262 -137 263 -353q0 -158 -104.5 -267.5t-315.5 -109.5t-310.5 100.5t-99.5 237.5zM289 328q0 -92 67.5 -158 t190.5 -66q119 0 183.5 66t64.5 176q0 176 -260 291q-246 -112 -246 -309zM334 1026q0 -154 233 -262q78 49 135.5 120.5t57.5 153.5q0 80 -57.5 132.5t-157.5 52.5q-92 0 -151.5 -58.5t-59.5 -138.5z" />
<glyph unicode="9" d="M106 887q0 195 113 327t318 132q115 0 199.5 -46.5t131.5 -129.5t70 -184t23 -226q0 -322 -146.5 -520.5t-484.5 -255.5l-31 122q231 45 357 169t143 317q-143 -100 -324 -100q-174 0 -271.5 106.5t-97.5 288.5zM266 891q0 -127 60.5 -202t173.5 -75q176 0 301 109 q1 28 1 55q0 104 -19 189q-24 106 -87 178t-164 72q-121 0 -193.5 -89.5t-72.5 -236.5z" />
<glyph unicode=":" horiz-adv-x="425" d="M94 92q0 51 33 85t84 34q55 0 88 -32t33 -85t-32 -87t-83 -34q-57 0 -90 32t-33 87zM94 881q0 51 33 84.5t84 33.5q55 0 88 -31.5t33 -85t-32 -87t-83 -33.5q-57 0 -90 32t-33 87z" />
<glyph unicode=";" horiz-adv-x="444" d="M72 -250q31 250 55 359q12 57 30.5 81.5t53.5 24.5q72 0 137 -65l-190 -426zM123 881q0 51 32.5 84.5t84.5 33.5q55 0 87.5 -31.5t32.5 -85t-31.5 -87t-82.5 -33.5q-57 0 -90 32t-33 87z" />
<glyph unicode="&#x3c;" d="M156 594v125l731 350l55 -125l-614 -285l618 -288l-59 -125z" />
<glyph unicode="=" d="M133 393v133h830v-133h-830zM133 748v133h830v-133h-830z" />
<glyph unicode="&#x3e;" d="M156 944l59 125l731 -348v-125l-731 -350l-55 125l614 284z" />
<glyph unicode="?" horiz-adv-x="741" d="M61 1374q133 49 250 49q174 0 256 -83t82 -216q0 -127 -54 -201.5t-165 -156.5q-51 -39 -72.5 -58.5t-38 -53t-16.5 -81.5v-221h-135q-12 111 -12 211q0 109 35.5 167t127.5 128q61 45 87 67.5t54.5 74t28.5 114.5q0 166 -198 166q-84 0 -201 -43zM129 82q0 47 33 80 t78 33q53 0 85.5 -31t32.5 -80t-31.5 -83t-80.5 -34q-53 0 -85 33t-32 82z" />
<glyph unicode="@" horiz-adv-x="1955" d="M147 430q0 430 249 664.5t653 234.5q350 0 554.5 -195.5t204.5 -541.5q0 -293 -140 -440.5t-378 -151.5h-76l-12 119l-6 2q-86 -131 -266 -131q-346 0 -346 428q0 233 116.5 364t327.5 131q133 0 295 -53v-678l6 -71q78 6 136.5 31.5t108.5 77.5t75.5 147.5t25.5 228.5 q0 276 -162.5 446t-484.5 170q-350 0 -545.5 -216t-195.5 -558q0 -326 178 -521.5t496 -195.5q199 0 354 74l39 -112q-164 -76 -400 -76q-207 0 -365.5 65.5t-252.5 181t-141.5 261t-47.5 315.5zM725 412q0 -311 229 -312q111 0 169.5 63.5t58.5 153.5v451q-61 33 -172 33 q-55 0 -88 -10q-197 -55 -197 -379z" />
<glyph unicode="A" horiz-adv-x="1243" d="M41 0l479 1362h193l489 -1362h-170l-149 420h-537l-145 -420h-160zM385 551h459l-232 666z" />
<glyph unicode="B" horiz-adv-x="1165" d="M168 0v1362h412q426 0 426 -334q0 -207 -220 -293q131 -23 210 -109.5t79 -226.5q0 -197 -127 -298t-370 -101h-410zM330 131h245q330 0 330 266q0 125 -84 193.5t-235 68.5h-256v-528zM330 786h198q160 0 237 61.5t77 168.5q0 127 -78 173t-221 46h-213v-449z" />
<glyph unicode="C" horiz-adv-x="1204" d="M111 680q0 188 54 331.5t143 221.5t190.5 115.5t212.5 37.5q283 0 442 -225l-115 -88q-147 174 -333 174q-197 0 -313 -149.5t-116 -407.5q0 -274 108 -425.5t323 -151.5q180 0 348 149l88 -106q-190 -180 -445 -181q-276 0 -431.5 177.5t-155.5 527.5z" />
<glyph unicode="D" horiz-adv-x="1314" d="M168 1362h416q291 0 455.5 -161t164.5 -470q0 -197 -49 -342t-136 -228t-192.5 -122t-230.5 -39h-428v1362zM330 131h270q207 0 323.5 145.5t116.5 415.5q0 293 -124.5 416t-344.5 123h-241v-1100z" />
<glyph unicode="E" horiz-adv-x="1009" d="M168 0v1362h762v-139h-600v-459h516v-139h-516v-486h614v-139h-776z" />
<glyph unicode="F" horiz-adv-x="1019" d="M168 0v1362h817v-139h-655v-459h542v-139h-542v-625h-162z" />
<glyph unicode="G" horiz-adv-x="1271" d="M111 678q0 190 51 332.5t137 221.5t184.5 116.5t206.5 37.5q285 0 457 -221l-117 -92q-147 174 -342 174q-193 0 -302.5 -148.5t-109.5 -406.5q0 -584 429 -583q76 0 156.5 21.5t119.5 49.5v406h-309v139h471v-625q-186 -125 -453 -125q-274 0 -426.5 177.5t-152.5 525.5 z" />
<glyph unicode="H" horiz-adv-x="1370" d="M168 0v1362h162v-582h710v582h162v-1362h-162v639h-710v-639h-162z" />
<glyph unicode="I" horiz-adv-x="501" d="M170 0v1362h162v-1362h-162z" />
<glyph unicode="J" horiz-adv-x="856" d="M23 92l81 115q121 -94 236 -94q188 0 188 209v1040h162v-848q0 -154 -4 -227q-12 -311 -340 -312q-109 0 -195.5 36t-127.5 81z" />
<glyph unicode="K" horiz-adv-x="1159" d="M168 0v1362h160v-795l585 795h181l-392 -535l433 -827h-183l-362 694l-262 -346v-348h-160z" />
<glyph unicode="L" horiz-adv-x="997" d="M172 0v1362h160v-1223h608v-139h-768z" />
<glyph unicode="M" horiz-adv-x="1677" d="M160 0l80 1362h200l396 -1000h2l407 1000h197l76 -1362h-156l-62 1133h-2l-397 -967h-137l-385 962h-2l-62 -1128h-155z" />
<glyph unicode="N" horiz-adv-x="1368" d="M168 0v1362h188l682 -1122h2v1122h160v-1362h-176l-694 1139h-2v-1139h-160z" />
<glyph unicode="O" horiz-adv-x="1353" d="M111 678q0 188 51 330.5t136 222.5t184.5 117.5t209.5 37.5q244 0 397.5 -171t153.5 -537q0 -344 -151.5 -523.5t-419.5 -179.5q-266 0 -413.5 179.5t-147.5 523.5zM276 684q0 -571 412 -571q106 0 185 47t122 129t62.5 177t19.5 206q0 100 -18.5 193t-59.5 183.5 t-121.5 144.5t-191.5 54q-141 0 -237.5 -85t-134.5 -206.5t-38 -271.5z" />
<glyph unicode="P" horiz-adv-x="1157" d="M168 0v1362h442q217 0 338 -104.5t121 -301.5q0 -221 -137 -337.5t-369 -116.5h-233v-502h-162zM330 633h205q369 0 368 299q0 98 -26.5 159.5t-86 90t-121 38t-161.5 9.5h-178v-596z" />
<glyph unicode="Q" horiz-adv-x="1329" d="M98 911q0 211 143.5 343t372.5 132q250 0 412 -161.5t162 -479.5q0 -334 -178 -593q166 -152 286.5 -222.5t302.5 -99.5l-34 -129q-184 27 -322.5 104.5t-322.5 233.5q-213 -197 -453 -197q-170 0 -241.5 74t-71.5 176q0 129 95 202t230 73q197 0 408 -136 q57 86 96 223.5t39 254.5q0 541 -412 540q-150 0 -251 -90t-101 -241q0 -133 72.5 -207t228.5 -115l-31 -117q-80 10 -149.5 38t-136 76t-105.5 130t-39 188zM309 98q0 -127 166 -127q174 0 328 154q-162 113 -305 113q-88 0 -138.5 -36t-50.5 -104z" />
<glyph unicode="R" horiz-adv-x="1198" d="M168 0v1362h432q463 0 463 -367q0 -158 -76 -249t-182 -125q51 -14 75.5 -42t55.5 -98l221 -481h-172l-201 428q-31 63 -65.5 97t-91.5 34h-297v-559h-162zM330 690h266q139 0 220 77t81 216q0 158 -88 203t-301 45h-178v-541z" />
<glyph unicode="S" horiz-adv-x="1089" d="M90 100l68 133q172 -117 370 -116q287 0 287 252q0 111 -78 166t-229 96q-88 25 -146.5 48t-120 65t-92 109t-30.5 157q0 170 119.5 273t312.5 103q131 0 247.5 -52t194.5 -130l-90 -108q-176 152 -354 151q-104 0 -183 -52t-79 -169q0 -109 75.5 -161t239.5 -101 q70 -23 114 -39t100 -49t88 -70t55.5 -97t23.5 -134q0 -190 -121 -295t-338 -105q-133 0 -258 42t-176 83z" />
<glyph unicode="T" horiz-adv-x="1058" d="M39 1223v139h981v-139h-414v-1223h-162v1223h-405z" />
<glyph unicode="U" horiz-adv-x="1288" d="M158 420v942h161v-938q0 -311 332 -311q147 0 232.5 75.5t85.5 225.5v948h161v-979q0 -193 -133 -300.5t-356 -107.5q-244 0 -363.5 106t-119.5 339z" />
<glyph unicode="V" horiz-adv-x="1161" d="M33 1362h170l383 -1172l379 1172h163l-460 -1362h-174z" />
<glyph unicode="W" horiz-adv-x="1677" d="M68 1362h161l263 -1165l258 1052h180l262 -1052h2l254 1165h162l-310 -1362h-202l-260 1022h-2l-254 -1022h-205z" />
<glyph unicode="X" horiz-adv-x="1177" d="M4 0l481 723l-422 639h197l332 -518l334 518h190l-424 -637l482 -725h-191l-397 592l-391 -592h-191z" />
<glyph unicode="Y" horiz-adv-x="1073" d="M12 1362h185l350 -678l342 678h172l-440 -844v-518h-162v518z" />
<glyph unicode="Z" horiz-adv-x="999" d="M66 0v131l675 1100h-663v131h844v-133l-678 -1098h700v-131h-878z" />
<glyph unicode="[" horiz-adv-x="608" d="M201 -317v1757h383v-123h-232v-1512h232v-122h-383z" />
<glyph unicode="\" horiz-adv-x="819" d="M-6 1473l143 53l654 -1678l-142 -53z" />
<glyph unicode="]" horiz-adv-x="608" d="M20 -195h232v1512h-232v123h383v-1757h-383v122z" />
<glyph unicode="^" d="M102 631l377 731h146l372 -733l-141 -23l-307 606l-309 -608z" />
<glyph unicode="_" horiz-adv-x="1024" d="M0 -152h1024v-118h-1024v118z" />
<glyph unicode="`" horiz-adv-x="1024" d="M346 1483q0 63 131 96l223 -371l-63 -51q-160 143 -246 242q-45 51 -45 84z" />
<glyph unicode="a" d="M96 465q0 276 131 429t383 153q162 0 336 -66v-803l17 -178h-144l-12 121l-6 2q-104 -152 -299 -152q-207 0 -306.5 131.5t-99.5 362.5zM254 459q0 -100 20.5 -177t84 -134.5t163.5 -57.5q123 0 194.5 70.5t71.5 163.5v563q-78 35 -204 35q-330 0 -330 -463z" />
<glyph unicode="b" horiz-adv-x="1091" d="M152 1423h157v-495q106 119 281 119q190 0 298.5 -129.5t108.5 -354.5q0 -295 -117.5 -443.5t-336.5 -148.5q-102 0 -216 26t-175 64v1362zM309 150q98 -57 236 -58q293 0 293 447q0 66 -12.5 127t-41 122.5t-89 98.5t-144.5 37q-98 0 -170 -58.5t-72 -144.5v-571z" />
<glyph unicode="c" horiz-adv-x="919" d="M98 510q0 147 42 258t110.5 168t142.5 84t152 27q233 0 354 -181l-106 -84q-100 133 -246 133q-131 0 -210 -100t-79 -299q0 -193 74 -303.5t231 -110.5q133 0 252 95l68 -105q-133 -121 -332 -121q-221 0 -337 138.5t-116 400.5z" />
<glyph unicode="d" d="M98 479q0 262 126 415t354 153q104 0 210 -37v413h158v-1239l17 -184h-142l-14 123l-8 2q-109 -154 -301 -154q-209 0 -304.5 141.5t-95.5 366.5zM256 498q0 -403 266 -404q119 0 192.5 67.5t73.5 151.5v561q-94 49 -217 50q-160 0 -237.5 -116.5t-77.5 -309.5z" />
<glyph unicode="e" horiz-adv-x="931" d="M98 494q0 238 125 395.5t350 157.5q141 0 220 -70t79 -184q0 -106 -57 -181t-151.5 -110t-179.5 -48.5t-175 -13.5q-10 0 -27.5 1t-25.5 1q6 -143 82 -243.5t225 -100.5q135 0 262 95l62 -105q-139 -117 -334 -117q-229 0 -342 140.5t-113 382.5zM256 559q6 0 19.5 -1 t21.5 -1q63 0 126.5 9t136.5 29.5t118 67t45 111.5q0 72 -44 113t-114 41q-150 0 -226.5 -113t-82.5 -256z" />
<glyph unicode="f" horiz-adv-x="641" d="M152 -430v1544q0 344 329 344q59 0 133 -18.5t117 -40.5l-45 -119q-98 49 -201 49q-96 0 -135 -52t-39 -159v-100h322v-137h-322v-1311h-159z" />
<glyph unicode="g" horiz-adv-x="1097" d="M98 535q0 250 131 381t346 131q209 0 377 -72v-766q0 -147 -6 -281q-12 -223 -118.5 -345t-307.5 -122q-156 0 -238.5 70t-82.5 195q0 217 266 364q-160 12 -263.5 116t-103.5 329zM256 551q0 -74 9 -128t36 -113.5t86 -91.5t148 -32q119 0 189.5 66.5t70.5 179.5v457 q-111 37 -238 37q-139 0 -220 -96.5t-81 -278.5zM352 -254q0 -162 183 -162q258 0 258 418v158q-233 -111 -337 -204t-104 -210z" />
<glyph unicode="h" horiz-adv-x="1093" d="M150 0v1423h157v-530q127 154 316 154q326 0 325 -353v-694h-160v651q0 127 -43 198t-165 71q-109 0 -191 -79t-82 -173v-668h-157z" />
<glyph unicode="i" horiz-adv-x="460" d="M127 1309q0 45 30.5 75.5t76 30.5t76 -30.5t30.5 -75.5q0 -47 -30.5 -78t-78.5 -31q-45 0 -74.5 31t-29.5 78zM154 0v1018h159v-1018h-159z" />
<glyph unicode="j" horiz-adv-x="460" d="M-203 -395l51 116q86 -49 170 -49q72 0 104 45t32 158v1143h159v-1106q0 -70 -3 -115t-18.5 -98t-44 -83t-81.5 -51.5t-129 -21.5q-148 1 -240 62zM131 1309q0 45 31 75.5t76 30.5t75.5 -30.5t30.5 -75.5q0 -47 -30.5 -78t-77.5 -31q-45 0 -75 31t-30 78z" />
<glyph unicode="k" horiz-adv-x="983" d="M152 0v1423h159v-663q45 117 142.5 202t226.5 85q104 0 173 -62.5t69 -181.5q0 -102 -61.5 -211t-196.5 -174l254 -418h-187l-219 367q-98 -20 -201 -21v-346h-159zM311 463h19q196 0 311 83q121 87 121 240q0 61 -31 94t-84 33q-111 0 -211 -143t-125 -307z" />
<glyph unicode="l" horiz-adv-x="618" d="M154 264v1159h157v-1136q0 -104 27 -146.5t102 -42.5q68 0 138 35l36 -110q-78 -51 -208 -52q-70 0 -119 18.5t-74 44t-39 69.5t-17 78t-3 83z" />
<glyph unicode="m" horiz-adv-x="1689" d="M141 1018h133l19 -146q111 174 313 175q215 0 293 -191q47 92 132 141.5t186 49.5q158 0 242.5 -93.5t84.5 -267.5v-686h-158v643q0 129 -44 203t-166 74q-102 0 -174 -74t-72 -170v-676h-158v641q0 57 -7 100t-26.5 87t-64.5 68t-113 24q-106 0 -177 -77t-71 -177v-666 h-157v864z" />
<glyph unicode="n" horiz-adv-x="1097" d="M141 1018h138l18 -148q119 176 330 177q160 0 242.5 -89.5t82.5 -263.5v-694h-159v645q0 131 -43 203t-162 72q-115 0 -196 -78t-81 -174v-668h-159v864z" />
<glyph unicode="o" horiz-adv-x="1064" d="M94 516q0 152 41 260.5t111.5 164.5t144.5 81t158 25q51 0 98 -8.5t109.5 -39t106.5 -82t75 -149.5t31 -229q0 -285 -125 -426.5t-330 -141.5q-199 0 -309.5 137.5t-110.5 407.5zM254 537q0 -442 274 -443q139 0 209 115t70 295q0 418 -270 418q-139 0 -211 -105.5 t-72 -279.5z" />
<glyph unicode="p" horiz-adv-x="1083" d="M150 -430v1415q215 61 370 62q240 0 352.5 -131.5t112.5 -395.5t-109.5 -406.5t-304.5 -142.5q-150 0 -262 78v-479h-159zM309 195q104 -90 250 -91q135 0 200.5 113t65.5 283q0 199 -69.5 305t-253.5 106q-98 0 -193 -32v-684z" />
<glyph unicode="q" horiz-adv-x="1081" d="M98 483q0 266 129 415t359 149q168 0 348 -72v-1405h-160v528h-4q-113 -127 -293 -127q-186 0 -282.5 130t-96.5 382zM256 516q0 -86 7 -146.5t29.5 -131t78 -108.5t139.5 -38q119 0 192.5 65.5t73.5 145.5v582q-88 35 -180 35q-168 0 -254 -105.5t-86 -298.5z" />
<glyph unicode="r" horiz-adv-x="708" d="M141 1018h138l18 -148q76 176 256 177q100 0 162 -39l-49 -142q-74 39 -134 39q-94 0 -155.5 -74.5t-65.5 -181.5v-649h-157v879z" />
<glyph unicode="s" horiz-adv-x="829" d="M61 70l62 114q131 -90 278 -90q90 0 146.5 44t56.5 130q0 82 -53 121t-158 64q-72 16 -119 33.5t-95 50t-71.5 84t-23.5 124.5q0 145 99.5 223.5t242.5 78.5q203 0 340 -138l-92 -94q-117 111 -254 111q-76 0 -131.5 -40t-55.5 -118q0 -43 15.5 -73.5t52.5 -52t63.5 -31 t86.5 -27.5q76 -23 114.5 -39.5t92 -50t78 -86t24.5 -125.5q0 -147 -98.5 -229.5t-258.5 -82.5q-113 0 -207 32t-135 67z" />
<glyph unicode="t" horiz-adv-x="681" d="M152 279v1144h159v-405h291v-137h-291v-607q0 -98 37 -138t113 -40q72 0 155 49l48 -106q-98 -68 -232 -68q-78 0 -133 19.5t-84 45t-43 72t-17 80.5t-3 91z" />
<glyph unicode="u" horiz-adv-x="1099" d="M150 322v696h159v-651q0 -131 43 -201t168 -70q104 0 187.5 78t83.5 168v676h157v-868l15 -150h-142l-16 139h-4q-109 -168 -322 -168q-329 1 -329 351z" />
<glyph unicode="v" horiz-adv-x="1052" d="M150 315v703h159v-643q0 -53 2 -87t12.5 -74t30 -61.5t55 -37t87.5 -15.5q104 0 172.5 71t94 170t25.5 220q0 190 -69 457h160q68 -229 67 -434q0 -289 -117.5 -451t-351.5 -162q-168 0 -247.5 80t-79.5 264z" />
<glyph unicode="w" horiz-adv-x="1617" d="M150 315v703h159v-619q0 -59 2 -94t12.5 -80t29 -68.5t54 -41t89.5 -17.5q104 0 178 76t74 176v668h159v-625q0 -70 5.5 -112.5t21.5 -90t55 -70t101 -22.5q268 0 268 484q0 168 -74 436h156q74 -250 73 -428q0 -618 -428 -619q-221 0 -272 197q-121 -197 -342 -197 q-166 0 -243.5 84t-77.5 260z" />
<glyph unicode="x" horiz-adv-x="909" d="M10 0l365 530l-322 488h170l240 -377l252 377h162l-330 -483l352 -535h-168l-272 416l-283 -416h-166z" />
<glyph unicode="y" horiz-adv-x="1093" d="M150 399v619h159v-576q0 -70 6.5 -110.5t28 -82.5t70.5 -61.5t127 -19.5q115 0 182.5 66.5t67.5 173.5v610h155v-977q0 -178 -26 -283q-78 -303 -400 -303q-154 0 -231.5 68.5t-77.5 189.5q0 203 225 350q-139 14 -212.5 92t-73.5 244zM365 -266q0 -156 172 -156 q252 0 251 385v178q-209 -86 -316 -179t-107 -228z" />
<glyph unicode="z" horiz-adv-x="806" d="M23 -229q0 285 329 456l-209 99v118l424 445h-520v129h711v-123l-471 -489l139 -66q168 -80 250 -187.5t82 -271.5q0 -193 -113 -308.5t-295 -115.5q-162 0 -244.5 84.5t-82.5 229.5zM172 -209q0 -96 47 -153.5t146 -57.5q119 0 182 85t63 214q0 190 -151 285 q-143 -70 -215 -171.5t-72 -201.5z" />
<glyph unicode="{" horiz-adv-x="604" d="M111 526v99q76 16 100.5 64t24.5 165q0 63 -9.5 180t-9.5 172q0 246 215 246q80 0 139 -18l-20 -111q-49 12 -86 12q-61 0 -79.5 -29.5t-18.5 -109.5q0 -47 8 -180t8 -178q0 -111 -26.5 -173.5t-100.5 -89.5q78 -27 103.5 -82t25.5 -171q0 -43 -10 -182.5t-10 -188.5 q0 -84 19 -121t83 -37q29 0 84 10l18 -108q-78 -18 -139 -19q-121 0 -168 64.5t-47 175.5q0 70 9 202t9 193q0 98 -25 148.5t-97 66.5z" />
<glyph unicode="|" horiz-adv-x="460" d="M156 -180v1710h149v-1710h-149z" />
<glyph unicode="}" horiz-adv-x="604" d="M12 1434q57 18 140 18q215 0 215 -246q0 -55 -9.5 -171.5t-9.5 -180.5q0 -117 24.5 -165t100.5 -64v-99q-72 -16 -97.5 -66t-25.5 -149q0 -61 9.5 -193t9.5 -202q0 -111 -47.5 -175.5t-167.5 -64.5q-61 0 -140 19l19 108q55 -10 84 -10q63 0 82.5 37t19.5 121 q0 49 -10 188.5t-10 182.5q0 117 25.5 172t103.5 81q-74 27 -100.5 89.5t-26.5 173.5q0 45 8 178t8 180q0 80 -18.5 109.5t-79.5 29.5q-37 0 -86 -12z" />
<glyph unicode="~" horiz-adv-x="1179" d="M150 553q102 188 247 188q84 0 210 -78.5t186 -78.5q80 0 131 110l106 -55q-80 -186 -242 -186q-82 0 -210.5 77.5t-182.5 77.5q-74 0 -139 -114z" />
<glyph unicode="&#xa1;" horiz-adv-x="534" d="M158 930q0 49 31.5 83t80.5 34q53 0 85 -33t32 -82q0 -47 -32.5 -80t-78.5 -33q-53 0 -85.5 31t-32.5 80zM186 -72l35 748h101l32 -748v-264q0 -74 -82 -74q-49 0 -67.5 19.5t-18.5 56.5v262z" />
<glyph unicode="&#xa2;" d="M184 643q0 250 108.5 378t264.5 153v229h133v-227q193 -23 295 -177l-106 -84q-82 109 -189 127v-806q111 12 211 92l68 -109q-104 -96 -279 -115v-227h-133v229q-182 25 -277.5 162t-95.5 375zM344 649q0 -342 213 -403v792q-98 -25 -155.5 -123t-57.5 -266z" />
<glyph unicode="&#xa3;" horiz-adv-x="1085" d="M16 -195q82 43 128 106.5t71 168.5l55 239h-207v123h232l115 529q45 213 143 294t246 81q156 0 293 -103l-76 -104q-113 78 -221 78q-106 0 -155.5 -62.5t-82.5 -206.5l-111 -506h369v-120h-391l-49 -218q-35 -166 -164 -272l4 -6q72 23 137 22q63 0 183 -25.5t204 -25.5 q102 0 215 25l-16 -129q-111 -23 -203 -23q-100 0 -243.5 29t-225.5 29q-131 0 -250 -52v129z" />
<glyph unicode="&#xa5;" horiz-adv-x="1058" d="M76 1319h170l295 -557l288 557h166l-313 -578h276v-114h-342v-176h342v-117h-342v-334h-157v334h-348v117h348v176h-348v114h282z" />
<glyph unicode="&#xa6;" horiz-adv-x="464" d="M156 -180v772h153v-772h-153zM156 831v699h153v-699h-153z" />
<glyph unicode="&#xa7;" horiz-adv-x="1112" d="M141 770l142 8q-3 -40 -3 -75q0 -85 17 -146q25 -86 74 -134t149 -104q8 -4 64.5 -34.5t69.5 -38.5l59 -37q45 -29 59 -45l44 -48q30 -32 40 -59.5t20.5 -67.5t10.5 -83q0 -39 -9.5 -80t-34 -86t-64.5 -80t-106.5 -57.5t-150.5 -22.5q-166 0 -301 78l53 119 q125 -74 254 -74q104 0 156.5 54.5t52.5 142.5q0 43 -17.5 80.5t-34.5 60t-70.5 57.5t-78 49.5t-106.5 57.5q-113 61 -175 120.5t-96 170.5q-23 74 -23 173q0 48 5 101zM223 1028q0 39 9.5 80t34 86t64.5 80t106.5 57.5t150.5 22.5q166 0 301 -78l-41 -119q-121 72 -246 72 q-115 0 -172 -54.5t-57 -140.5q0 -39 17.5 -75.5t34.5 -59t66.5 -57.5t68.5 -46l87 -48q23 -12 33 -19q106 -59 169.5 -123.5t96.5 -175.5q24 -80 24 -186q0 -40 -3 -82l-136 -12q0 12 1 23q0 174 -58 271q-61 104 -184 170q-178 96 -230 136q-137 110 -137 278z" />
<glyph unicode="&#xa8;" horiz-adv-x="1024" d="M231 1335q0 47 30 77t77 30q45 0 74.5 -31t29.5 -76q0 -47 -30.5 -76.5t-75.5 -29.5q-47 0 -76 29.5t-29 76.5zM600 1335q0 47 29.5 77t77.5 30q45 0 74.5 -31t29.5 -76q0 -47 -30.5 -76.5t-75.5 -29.5q-47 0 -76 29.5t-29 76.5z" />
<glyph unicode="&#xa9;" horiz-adv-x="1665" d="M123 668q0 303 197.5 509.5t502.5 206.5q313 0 516 -204.5t203 -499.5q0 -309 -202.5 -515t-516.5 -206q-322 0 -511 197t-189 512zM250 668q0 -270 160.5 -434t414.5 -164t422 171t168 433q0 256 -169 428t-421 172q-254 0 -414.5 -173t-160.5 -433zM475 678 q0 113 34 196.5t89 126.5t112.5 63.5t118.5 20.5q82 0 166 -40.5t131 -116.5l-86 -62q-102 113 -209 113q-109 0 -171 -74t-62 -225q0 -307 240 -307q117 0 209 80l63 -80q-123 -106 -272 -107q-178 0 -270.5 109.5t-92.5 302.5z" />
<glyph unicode="&#xaa;" horiz-adv-x="823" d="M104 858q0 182 93.5 285.5t263.5 103.5q121 0 244 -45v-514l18 -149h-127l-12 79h-9q-80 -94 -196 -94q-137 0 -206 95.5t-69 238.5zM240 879q0 -115 42 -181.5t126 -66.5q68 0 113.5 37t45.5 73v379q-53 20 -125 21q-100 0 -151 -74.5t-51 -187.5z" />
<glyph unicode="&#xab;" horiz-adv-x="1007" d="M113 543q0 37 51 84q111 106 325 272l64 -63l-279 -295l263 -338l-68 -62q-250 225 -328 334q-28 41 -28 68zM489 543q0 37 52 84q111 106 325 272l64 -63l-279 -295l262 -338l-67 -62q-250 225 -328 334q-29 41 -29 68z" />
<glyph unicode="&#xac;" d="M109 690v137h878v-419h-141v282h-737z" />
<glyph unicode="&#xad;" horiz-adv-x="659" d="M100 539v135h455v-135h-455z" />
<glyph unicode="&#xae;" horiz-adv-x="948" d="M82 1004q0 166 108.5 274t278.5 108q174 0 285.5 -108.5t111.5 -269.5q0 -170 -111.5 -277.5t-285.5 -107.5q-176 0 -281.5 106.5t-105.5 274.5zM174 1003.5q0 -135.5 83 -219.5t212 -84q137 0 222 83t85 221q0 133 -87 219t-220 86t-214 -85t-81 -220.5zM332 793v432 h160q63 0 100 -30t37 -85q0 -86 -72 -117q16 -8 27 -30l78 -170h-89l-65 145q-12 29 -33 29h-67v-174h-76zM408 1032h63q74 0 74 70q0 59 -86 59h-51v-129z" />
<glyph unicode="&#xaf;" horiz-adv-x="1024" d="M240 1268v133h532v-133h-532z" />
<glyph unicode="&#xb0;" horiz-adv-x="610" d="M86 1225q0 100 59.5 163.5t160 63.5t159.5 -61.5t59 -153.5q0 -102 -61.5 -166.5t-163.5 -64.5q-100 0 -156.5 61.5t-56.5 157.5zM193 1225q0 -57 29.5 -91t82.5 -34t83 34.5t30 90.5q0 133 -112.5 133t-112.5 -133z" />
<glyph unicode="&#xb1;" d="M133 115v137h336v334h-336v137h336v338h143v-338h351v-137h-351v-334h351v-137h-830z" />
<glyph unicode="&#xb2;" horiz-adv-x="772" d="M104 1407q150 102 295 102q115 0 173.5 -54t58.5 -136q0 -113 -107 -238l-229 -272h369v-111h-535v97l256 303q109 127 109 200q0 98 -119 99q-88 0 -207 -80z" />
<glyph unicode="&#xb3;" horiz-adv-x="772" d="M129 741l39 101q102 -47 199 -47q156 0 155 116q0 59 -76 174q-82 -33 -163 -49l-29 92q63 16 115 35q49 16 72.5 28.5t46 40.5t22.5 68q0 98 -123 99q-80 0 -199 -56l-49 89q152 78 281 77q109 0 164 -53t55 -133q0 -106 -86 -184q98 -133 98 -227.5t-69.5 -159 t-206.5 -64.5q-140 0 -246 53z" />
<glyph unicode="&#xb4;" horiz-adv-x="1024" d="M317 1208l226 371q127 -33 127 -92q0 -35 -45 -86q-57 -66 -244 -244z" />
<glyph unicode="&#xb5;" horiz-adv-x="1206" d="M182 -442v1460h142v-610q0 -145 63.5 -231.5t196.5 -86.5q131 0 209.5 100.5t78.5 255.5v572h146v-858q0 -70 57 -70q33 0 99 33l30 -96q-80 -49 -170 -50q-140 0 -140 163q0 13 1 28q-98 -197 -303 -197q-178 0 -270 129v-542h-140z" />
<glyph unicode="&#xb6;" horiz-adv-x="1011" d="M131 891q0 248 128 359.5t341 111.5h244v-1215q0 -256 -100.5 -379.5t-350.5 -183.5l-37 131q182 49 257 139.5t75 249.5v1135h-153v-790q-176 8 -290 121.5t-114 320.5z" />
<glyph unicode="&#xb7;" horiz-adv-x="622" d="M193 631q0 51 32.5 84t83.5 33q55 0 88 -31t33 -84t-31.5 -88t-83.5 -35q-57 0 -89.5 33t-32.5 88z" />
<glyph unicode="&#xb8;" horiz-adv-x="1024" d="M279 -440l26 86q80 -27 135 -27q104 0 105 78q0 45 -44 63.5t-139 18.5l72 227h98l-40 -153q172 -10 172 -152q0 -86 -62.5 -132t-155.5 -46t-167 37z" />
<glyph unicode="&#xb9;" horiz-adv-x="772" d="M127 1362l242 135h129l-11 -121v-569h152v-109h-444v109h159v551l-182 -86z" />
<glyph unicode="&#xba;" horiz-adv-x="817" d="M96 883q0 199 95.5 283.5t224.5 84.5q133 0 219 -83t86 -259q0 -186 -84 -285.5t-236 -99.5q-147 0 -226 97.5t-79 261.5zM233 915q0 -283 173 -282q86 0 132 69.5t46 184.5q0 258 -181 258q-86 0 -128 -68t-42 -162z" />
<glyph unicode="&#xbb;" horiz-adv-x="1007" d="M78 836l63 63q215 -166 326 -272q51 -47 51 -84q0 -27 -29 -68q-78 -109 -327 -334l-68 62l262 338zM455 836l63 63q215 -166 326 -272q51 -47 51 -84q0 -27 -29 -68q-78 -109 -327 -334l-68 62l262 338z" />
<glyph unicode="&#xbc;" horiz-adv-x="1638" d="M33 1198l241 135h129l-10 -121v-569h152v-108h-445v108h160v551l-182 -86zM469 49l598 1284l123 -53l-602 -1286zM954 180v96l248 539l105 -47l-224 -483h224v69l39 162h81v-231h140v-109h-140v-176h-124v180h-349z" />
<glyph unicode="&#xbd;" horiz-adv-x="1638" d="M47 1198l242 135h129l-10 -121v-569h151v-108h-444v108h159v551l-182 -86zM442 49l598 1284l123 -53l-602 -1286zM995 709q150 102 295 102q115 0 173.5 -54.5t58.5 -135.5q0 -113 -107 -238l-229 -272h368v-111h-534v96l256 303q109 127 108 201q0 98 -118 98 q-88 0 -207 -80z" />
<glyph unicode="&#xbe;" horiz-adv-x="1638" d="M84 578l39 100q102 -47 199 -47q156 0 155 117q0 59 -76 174q-82 -33 -163 -50l-29 93q63 16 115 34q49 16 72.5 28.5t46 40.5t22.5 69q0 98 -123 98q-80 0 -199 -55l-49 88q152 78 281 78q109 0 164 -53.5t55 -133.5q0 -106 -86 -184q98 -133 98 -227.5t-69.5 -159 t-206.5 -64.5q-140 1 -246 54zM463 49l598 1284l123 -53l-602 -1286zM950 180v96l248 539l105 -47l-224 -483h224v69l38 162h82v-231h140v-109h-140v-176h-125v180h-348z" />
<glyph unicode="&#xbf;" horiz-adv-x="741" d="M61 -111q0 127 54.5 202t165.5 157q51 39 72.5 58.5t38 53t16.5 80.5v222h135q12 -111 12 -211q0 -109 -36 -167.5t-128 -127.5q-61 -45 -86.5 -67.5t-54.5 -74t-29 -114.5q0 -166 199 -166q84 0 201 43l28 -137q-133 -49 -250 -50q-174 0 -256 83t-82 216zM352 930 q0 49 32 83t81 34q53 0 85 -33t32 -82q0 -47 -33 -80t-78 -33q-53 0 -86 31t-33 80z" />
<glyph unicode="&#xc0;" horiz-adv-x="1243" d="M41 0l479 1362h193l489 -1362h-170l-149 420h-537l-145 -420h-160zM348 1731q0 47 101 104l311 -301l-49 -68l-297 179q-66 47 -66 86zM385 551h459l-232 666z" />
<glyph unicode="&#xc1;" horiz-adv-x="1243" d="M41 0l479 1362h193l489 -1362h-170l-149 420h-537l-145 -420h-160zM385 551h459l-232 666zM483 1534l312 303q100 -55 100 -106q0 -39 -68 -86q-45 -31 -295 -179z" />
<glyph unicode="&#xc2;" horiz-adv-x="1243" d="M41 0l479 1362h193l489 -1362h-170l-149 420h-537l-145 -420h-160zM299 1516q127 168 219 251q47 45 90 45q49 0 90 -40q123 -123 224 -254l-64 -52l-250 181l-246 -181zM385 551h459l-232 666z" />
<glyph unicode="&#xc3;" horiz-adv-x="1243" d="M41 0l479 1362h193l489 -1362h-170l-149 420h-537l-145 -420h-160zM330 1630q70 55 164 56q53 0 138 -26t128 -26q59 0 123 35l14 -123q-68 -37 -135 -37q-45 0 -140.5 22.5t-132.5 22.5q-70 0 -145 -41zM385 551h459l-232 666z" />
<glyph unicode="&#xc4;" horiz-adv-x="1243" d="M41 0l479 1362h193l489 -1362h-170l-149 420h-537l-145 -420h-160zM315 1599q0 45 30 75t77 30q45 0 74.5 -29.5t29.5 -75.5q0 -47 -30.5 -76.5t-75.5 -29.5q-47 0 -76 29.5t-29 76.5zM385 551h459l-232 666zM700 1599q0 45 30 75t77 30q45 0 74.5 -29.5t29.5 -75.5 q0 -47 -30.5 -76.5t-75.5 -29.5q-47 0 -76 29.5t-29 76.5z" />
<glyph unicode="&#xc5;" horiz-adv-x="1243" d="M41 0l477 1358q-72 47 -72 147q0 78 48.5 127t128 49t128 -47t48.5 -118q0 -113 -84 -162l487 -1354h-170l-149 420h-537l-145 -420h-160zM385 551h459l-232 666zM545 1505q0 -92 77.5 -92t77.5 92q0 94 -77.5 94t-77.5 -94z" />
<glyph unicode="&#xc6;" horiz-adv-x="1648" d="M25 0l479 1362h1069v-139h-813l162 -459h563v-139h-522l174 -486h448v-139h-571l-152 428h-530l-148 -428h-159zM373 559h450l-227 655z" />
<glyph unicode="&#xc7;" horiz-adv-x="1204" d="M111 680q0 188 54 331.5t143 221.5t190.5 115.5t212.5 37.5q283 0 442 -225l-115 -88q-147 174 -333 174q-197 0 -313 -149.5t-116 -407.5q0 -274 108 -425.5t323 -151.5q180 0 348 149l88 -106q-182 -174 -432 -181l-33 -122q172 -10 172 -152q0 -88 -63.5 -135 t-153.5 -47q-94 0 -168 37l27 86q80 -27 135 -27q104 0 104 82q0 45 -44 63.5t-138 18.5l63 203q-238 25 -369.5 200.5t-131.5 497.5z" />
<glyph unicode="&#xc8;" horiz-adv-x="1009" d="M168 0v1362h762v-139h-600v-459h516v-139h-516v-486h614v-139h-776zM303 1731q0 47 100 104l312 -301l-49 -68l-297 179q-66 47 -66 86z" />
<glyph unicode="&#xc9;" horiz-adv-x="1009" d="M168 0v1362h762v-139h-600v-459h516v-139h-516v-486h614v-139h-776zM381 1534l311 303q100 -55 101 -106q0 -39 -68 -86q-45 -31 -295 -179z" />
<glyph unicode="&#xca;" horiz-adv-x="1009" d="M168 0v1362h762v-139h-600v-459h516v-139h-516v-486h614v-139h-776zM231 1516q127 168 220 251q47 45 90 45q49 0 90 -40q123 -123 223 -254l-63 -52l-250 181l-246 -181z" />
<glyph unicode="&#xcb;" horiz-adv-x="1009" d="M168 0v1362h762v-139h-600v-459h516v-139h-516v-486h614v-139h-776zM246 1599q0 45 29.5 75t76.5 30q45 0 75 -29.5t30 -75.5q0 -47 -31 -76.5t-76 -29.5q-47 0 -75.5 29.5t-28.5 76.5zM631 1599q0 45 29.5 75t76.5 30q45 0 75 -29.5t30 -75.5q0 -47 -31 -76.5t-76 -29.5 q-47 0 -75.5 29.5t-28.5 76.5z" />
<glyph unicode="&#xcc;" horiz-adv-x="501" d="M-23 1731q0 47 101 104l311 -301l-49 -68l-297 179q-66 47 -66 86zM170 0v1362h162v-1362h-162z" />
<glyph unicode="&#xcd;" horiz-adv-x="501" d="M109 1534l311 303q100 -55 100 -106q0 -39 -67 -86q-45 -31 -295 -179zM170 0v1362h162v-1362h-162z" />
<glyph unicode="&#xce;" horiz-adv-x="501" d="M-57 1516q127 168 219 251q47 45 90 45q49 0 90 -40q123 -123 223 -254l-63 -52l-250 181l-246 -181zM170 0v1362h162v-1362h-162z" />
<glyph unicode="&#xcf;" horiz-adv-x="501" d="M-49 1599q0 45 29.5 75t76.5 30q45 0 75 -29.5t30 -75.5q0 -47 -31 -76.5t-76 -29.5q-47 0 -75.5 29.5t-28.5 76.5zM170 0v1362h162v-1362h-162zM336 1599q0 45 29.5 75t76.5 30q45 0 75 -29.5t30 -75.5q0 -47 -31 -76.5t-76 -29.5q-47 0 -75.5 29.5t-28.5 76.5z" />
<glyph unicode="&#xd0;" horiz-adv-x="1314" d="M14 754h154v608h416q291 0 455.5 -161t164.5 -470q0 -197 -49 -342t-136 -228t-192.5 -122t-230.5 -39h-428v618h-154v136zM330 131h270q207 0 323.5 145.5t116.5 415.5q0 293 -124.5 416t-344.5 123h-241v-477h389v-136h-389v-487z" />
<glyph unicode="&#xd1;" horiz-adv-x="1368" d="M168 0v1362h188l682 -1122h2v1122h160v-1362h-176l-694 1139h-2v-1139h-160zM397 1630q70 55 164 56q53 0 138 -26t128 -26q59 0 123 35l15 -123q-68 -37 -136 -37q-45 0 -140 22.5t-132 22.5q-70 0 -145 -41z" />
<glyph unicode="&#xd2;" horiz-adv-x="1353" d="M111 678q0 188 51 330.5t136 222.5t184.5 117.5t209.5 37.5q244 0 397.5 -171t153.5 -537q0 -344 -151.5 -523.5t-419.5 -179.5q-266 0 -413.5 179.5t-147.5 523.5zM276 684q0 -571 412 -571q106 0 185 47t122 129t62.5 177t19.5 206q0 100 -18.5 193t-59.5 183.5 t-121.5 144.5t-191.5 54q-141 0 -237.5 -85t-134.5 -206.5t-38 -271.5zM451 1731q0 47 100 104l311 -301l-49 -68l-297 179q-65 47 -65 86z" />
<glyph unicode="&#xd3;" horiz-adv-x="1353" d="M111 678q0 188 51 330.5t136 222.5t184.5 117.5t209.5 37.5q244 0 397.5 -171t153.5 -537q0 -344 -151.5 -523.5t-419.5 -179.5q-266 0 -413.5 179.5t-147.5 523.5zM276 684q0 -571 412 -571q106 0 185 47t122 129t62.5 177t19.5 206q0 100 -18.5 193t-59.5 183.5 t-121.5 144.5t-191.5 54q-141 0 -237.5 -85t-134.5 -206.5t-38 -271.5zM512 1534l311 303q100 -55 101 -106q0 -39 -68 -86q-45 -31 -295 -179z" />
<glyph unicode="&#xd4;" horiz-adv-x="1353" d="M111 678q0 188 51 330.5t136 222.5t184.5 117.5t209.5 37.5q244 0 397.5 -171t153.5 -537q0 -344 -151.5 -523.5t-419.5 -179.5q-266 0 -413.5 179.5t-147.5 523.5zM276 684q0 -571 412 -571q106 0 185 47t122 129t62.5 177t19.5 206q0 100 -18.5 193t-59.5 183.5 t-121.5 144.5t-191.5 54q-141 0 -237.5 -85t-134.5 -206.5t-38 -271.5zM375 1516q127 168 219 251q47 45 90 45q49 0 90 -40q123 -123 223 -254l-63 -52l-250 181l-246 -181z" />
<glyph unicode="&#xd5;" horiz-adv-x="1353" d="M111 678q0 188 51 330.5t136 222.5t184.5 117.5t209.5 37.5q244 0 397.5 -171t153.5 -537q0 -344 -151.5 -523.5t-419.5 -179.5q-266 0 -413.5 179.5t-147.5 523.5zM276 684q0 -571 412 -571q106 0 185 47t122 129t62.5 177t19.5 206q0 100 -18.5 193t-59.5 183.5 t-121.5 144.5t-191.5 54q-141 0 -237.5 -85t-134.5 -206.5t-38 -271.5zM403 1630q70 55 164 56q53 0 138.5 -26t128.5 -26q59 0 122 35l15 -123q-68 -37 -135 -37q-45 0 -140.5 22.5t-132.5 22.5q-70 0 -145 -41z" />
<glyph unicode="&#xd6;" horiz-adv-x="1353" d="M111 678q0 188 51 330.5t136 222.5t184.5 117.5t209.5 37.5q244 0 397.5 -171t153.5 -537q0 -344 -151.5 -523.5t-419.5 -179.5q-266 0 -413.5 179.5t-147.5 523.5zM276 684q0 -571 412 -571q106 0 185 47t122 129t62.5 177t19.5 206q0 100 -18.5 193t-59.5 183.5 t-121.5 144.5t-191.5 54q-141 0 -237.5 -85t-134.5 -206.5t-38 -271.5zM389 1599q0 45 29.5 75t77.5 30q45 0 74.5 -29.5t29.5 -75.5q0 -47 -30.5 -76.5t-75.5 -29.5q-47 0 -76 29.5t-29 76.5zM774 1599q0 45 30 75t77 30q45 0 74.5 -29.5t29.5 -75.5q0 -47 -30.5 -76.5 t-75.5 -29.5q-47 0 -76 29.5t-29 76.5z" />
<glyph unicode="&#xd7;" d="M197 399l252 252l-252 252l102 103l250 -252l252 250l96 -97l-250 -252l252 -249l-104 -103l-250 252l-252 -252z" />
<glyph unicode="&#xd8;" horiz-adv-x="1353" d="M111 678q0 188 51 330.5t136 222.5t184.5 117.5t209.5 37.5q131 0 234 -47l82 170l125 -57l-93 -188q203 -182 203 -586q0 -344 -151.5 -523.5t-419.5 -179.5q-137 0 -240 45l-100 -206l-121 59l106 219q-206 174 -206 586zM276 684q0 -297 115 -440l467 958 q-74 45 -172 45q-141 0 -237.5 -85t-134.5 -206.5t-38 -271.5zM498 154q78 -41 190 -41q106 0 185 47t122 129t62.5 177t19.5 206q0 276 -114 434z" />
<glyph unicode="&#xd9;" horiz-adv-x="1288" d="M158 420v942h161v-938q0 -311 332 -311q147 0 232.5 75.5t85.5 225.5v948h161v-979q0 -193 -133 -300.5t-356 -107.5q-244 0 -363.5 106t-119.5 339zM399 1731q0 47 101 104l311 -301l-49 -68l-297 179q-66 47 -66 86z" />
<glyph unicode="&#xda;" horiz-adv-x="1288" d="M158 420v942h161v-938q0 -311 332 -311q147 0 232.5 75.5t85.5 225.5v948h161v-979q0 -193 -133 -300.5t-356 -107.5q-244 0 -363.5 106t-119.5 339zM483 1534l312 303q100 -55 100 -106q0 -39 -68 -86q-45 -31 -295 -179z" />
<glyph unicode="&#xdb;" horiz-adv-x="1288" d="M158 420v942h161v-938q0 -311 332 -311q147 0 232.5 75.5t85.5 225.5v948h161v-979q0 -193 -133 -300.5t-356 -107.5q-244 0 -363.5 106t-119.5 339zM330 1516q127 168 219 251q47 45 90 45q49 0 90 -40q123 -123 223 -254l-63 -52l-250 181l-246 -181z" />
<glyph unicode="&#xdc;" horiz-adv-x="1288" d="M158 420v942h161v-938q0 -311 332 -311q147 0 232.5 75.5t85.5 225.5v948h161v-979q0 -193 -133 -300.5t-356 -107.5q-244 0 -363.5 106t-119.5 339zM342 1599q0 45 29.5 75t77.5 30q45 0 74.5 -29.5t29.5 -75.5q0 -47 -30.5 -76.5t-76.5 -29.5q-47 0 -75.5 29.5 t-28.5 76.5zM727 1599q0 45 29.5 75t77.5 30q45 0 74.5 -29.5t29.5 -75.5q0 -47 -30.5 -76.5t-76.5 -29.5q-47 0 -75.5 29.5t-28.5 76.5z" />
<glyph unicode="&#xdd;" horiz-adv-x="1073" d="M12 1362h185l350 -678l342 678h172l-440 -844v-518h-162v518zM395 1534l312 303q100 -55 100 -106q0 -39 -68 -86q-45 -31 -295 -179z" />
<glyph unicode="&#xde;" horiz-adv-x="1163" d="M164 0v1362h162v-217h280q217 0 339 -104.5t122 -301.5q0 -221 -138 -337.5t-368 -116.5h-235v-285h-162zM326 416h204q369 0 369 299q0 80 -20.5 135t-52 87t-90 48t-116 21.5t-145.5 5.5h-149v-596z" />
<glyph unicode="&#xdf;" horiz-adv-x="1148" d="M152 -430v1489q0 399 450 399q205 0 301 -77.5t96 -196.5q0 -55 -28.5 -107.5t-70.5 -92.5t-84 -76t-70.5 -72.5t-28.5 -71.5q0 -43 38 -80t92 -71.5t108.5 -74.5t92 -105.5t37.5 -147.5q0 -152 -98 -233t-244 -81q-80 0 -170 22.5t-141 59.5l57 117q113 -76 248 -76 q86 0 138.5 44t52.5 132q0 66 -37 116t-91 82l-108 64q-53 33 -90 82.5t-37 114.5q0 70 44 134.5t96.5 105.5t96.5 96t44 109q0 74 -68.5 116.5t-193.5 42.5q-272 0 -273 -260v-1503h-159z" />
<glyph unicode="&#xe0;" d="M96 465q0 276 131 429t383 153q162 0 336 -66v-803l17 -178h-144l-12 121l-6 2q-104 -152 -299 -152q-207 0 -306.5 131.5t-99.5 362.5zM254 459q0 -100 20.5 -177t84 -134.5t163.5 -57.5q123 0 194.5 70.5t71.5 163.5v563q-78 35 -204 35q-330 0 -330 -463zM367 1483 q0 63 131 96l223 -371l-64 -51q-160 143 -245 242q-45 51 -45 84z" />
<glyph unicode="&#xe1;" d="M96 465q0 276 131 429t383 153q162 0 336 -66v-803l17 -178h-144l-12 121l-6 2q-104 -152 -299 -152q-207 0 -306.5 131.5t-99.5 362.5zM254 459q0 -100 20.5 -177t84 -134.5t163.5 -57.5q123 0 194.5 70.5t71.5 163.5v563q-78 35 -204 35q-330 0 -330 -463zM442 1208 l226 371q127 -33 127 -92q0 -35 -45 -86q-57 -66 -244 -244z" />
<glyph unicode="&#xe2;" d="M96 465q0 276 131 429t383 153q162 0 336 -66v-803l17 -178h-144l-12 121l-6 2q-104 -152 -299 -152q-207 0 -306.5 131.5t-99.5 362.5zM254 459q0 -100 20.5 -177t84 -134.5t163.5 -57.5q123 0 194.5 70.5t71.5 163.5v563q-78 35 -204 35q-330 0 -330 -463zM287 1247 q113 166 198 275q43 55 93 55q53 0 96 -53q115 -147 196 -277l-63 -51l-229 209l-228 -207z" />
<glyph unicode="&#xe3;" d="M96 465q0 276 131 429t383 153q162 0 336 -66v-803l17 -178h-144l-12 121l-6 2q-104 -152 -299 -152q-207 0 -306.5 131.5t-99.5 362.5zM254 459q0 -100 20.5 -177t84 -134.5t163.5 -57.5q123 0 194.5 70.5t71.5 163.5v563q-78 35 -204 35q-330 0 -330 -463zM307 1382 q70 55 164 56q53 0 138 -26t128 -26q59 0 123 35l14 -123q-68 -37 -135 -36q-45 0 -140 22.5t-132 22.5q-76 0 -145 -41z" />
<glyph unicode="&#xe4;" d="M96 465q0 276 131 429t383 153q162 0 336 -66v-803l17 -178h-144l-12 121l-6 2q-104 -152 -299 -152q-207 0 -306.5 131.5t-99.5 362.5zM254 459q0 -100 20.5 -177t84 -134.5t163.5 -57.5q123 0 194.5 70.5t71.5 163.5v563q-78 35 -204 35q-330 0 -330 -463zM301 1335 q0 47 29.5 77t77.5 30q45 0 74.5 -31t29.5 -76q0 -47 -30.5 -76.5t-76.5 -29.5q-47 0 -75.5 29.5t-28.5 76.5zM670 1335q0 47 29.5 77t76.5 30q45 0 75 -31t30 -76q0 -47 -31 -76.5t-76 -29.5q-47 0 -75.5 29.5t-28.5 76.5z" />
<glyph unicode="&#xe5;" d="M96 465q0 276 131 429t383 153q162 0 336 -66v-803l17 -178h-144l-12 121l-6 2q-104 -152 -299 -152q-207 0 -306.5 131.5t-99.5 362.5zM254 459q0 -100 20.5 -177t84 -134.5t163.5 -57.5q123 0 194.5 70.5t71.5 163.5v563q-78 35 -204 35q-330 0 -330 -463zM408 1352 q0 78 48 127t128 49t128 -47t48 -119q0 -82 -49.5 -133t-130.5 -51q-80 0 -126 49t-46 125zM506 1352q0 -92 77.5 -92t77.5 92q0 94 -77.5 94t-77.5 -94z" />
<glyph unicode="&#xe6;" horiz-adv-x="1507" d="M96 475q0 270 129 421t369 151q152 0 297 -78q113 78 258 78q141 0 220 -69t79 -185q0 -94 -48 -165t-117 -106t-159 -55.5t-157 -23.5q-41 -2 -81 -1h-52q4 -152 79.5 -248t223.5 -96q141 0 262 95l61 -109q-135 -113 -346 -113q-188 0 -293 109q-143 -111 -303 -111 q-113 0 -195.5 40t-131 110.5t-72 160t-23.5 195.5zM254 492q0 -174 66.5 -286t211.5 -112q127 0 220 78q-78 131 -78 322q0 221 114 374q-111 55 -221 56q-158 0 -235.5 -122t-77.5 -310zM831 555q13 -1 28 -1q43 0 94 5q69 6 152 25.5t138 68.5t55 121t-43 113t-112 41 q-150 0 -228 -115t-84 -258z" />
<glyph unicode="&#xe7;" horiz-adv-x="919" d="M98 510q0 147 42 258t110.5 168t142.5 84t152 27q233 0 354 -181l-106 -84q-100 133 -246 133q-131 0 -210 -100t-79 -299q0 -193 74 -303.5t231 -110.5q133 0 252 95l68 -105q-131 -119 -324 -121l-31 -118q172 -10 172 -152q0 -86 -62.5 -132t-154.5 -46q-94 0 -168 37 l27 86q80 -27 135 -27q104 0 105 78q0 45 -44 63.5t-139 18.5l62 198q-178 27 -270.5 162t-92.5 371z" />
<glyph unicode="&#xe8;" horiz-adv-x="931" d="M98 494q0 -242 113 -382.5t342 -140.5q195 0 334 117l-62 105q-127 -94 -262 -95q-150 0 -225.5 100.5t-81.5 243.5q8 0 25.5 -1t27.5 -1q90 0 175 13.5t179.5 48.5t151.5 109.5t57 181.5q0 115 -78.5 184.5t-220.5 69.5q-225 0 -350 -157.5t-125 -395.5zM256 559 q6 143 83 256t226 113q70 0 114 -41t44 -113q0 -66 -45 -112t-118 -66.5t-136.5 -29.5t-126.5 -9q-8 0 -21.5 1t-19.5 1zM324 1483q0 63 131 96l223 -371l-64 -51q-160 143 -245 242q-45 51 -45 84z" />
<glyph unicode="&#xe9;" horiz-adv-x="931" d="M98 494q0 238 125 395.5t350 157.5q141 0 220 -70t79 -184q0 -106 -57 -181t-151.5 -110t-179.5 -48.5t-175 -13.5q-10 0 -27.5 1t-25.5 1q6 -143 82 -243.5t225 -100.5q135 0 262 95l62 -105q-139 -117 -334 -117q-229 0 -342 140.5t-113 382.5zM256 559q6 0 19.5 -1 t21.5 -1q63 0 126.5 9t136.5 29.5t118 67t45 111.5q0 72 -44 113t-114 41q-150 0 -226.5 -113t-82.5 -256zM383 1208l225 371q127 -33 127 -92q0 -35 -45 -86q-57 -66 -244 -244z" />
<glyph unicode="&#xea;" horiz-adv-x="931" d="M98 494q0 -242 113 -382.5t342 -140.5q195 0 334 117l-62 105q-127 -94 -262 -95q-150 0 -225.5 100.5t-81.5 243.5q8 0 25.5 -1t27.5 -1q90 0 175 13.5t179.5 48.5t151.5 109.5t57 181.5q0 115 -78.5 184.5t-220.5 69.5q-225 0 -350 -157.5t-125 -395.5zM250 1247 q113 166 199 275q43 55 92 55q53 0 96 -53q115 -147 197 -277l-64 -51l-229 209l-228 -207zM256 559q6 143 83 256t226 113q70 0 114 -41t44 -113q0 -66 -45 -112t-118 -66.5t-136.5 -29.5t-126.5 -9q-8 0 -21.5 1t-19.5 1z" />
<glyph unicode="&#xeb;" horiz-adv-x="931" d="M98 494q0 -242 113 -382.5t342 -140.5q195 0 334 117l-62 105q-127 -94 -262 -95q-150 0 -225.5 100.5t-81.5 243.5q8 0 25.5 -1t27.5 -1q90 0 175 13.5t179.5 48.5t151.5 109.5t57 181.5q0 115 -78.5 184.5t-220.5 69.5q-225 0 -350 -157.5t-125 -395.5zM248 1335 q0 47 29.5 77t76.5 30q45 0 75 -31t30 -76q0 -47 -31 -76.5t-76 -29.5q-47 0 -75.5 29.5t-28.5 76.5zM256 559q6 143 83 256t226 113q70 0 114 -41t44 -113q0 -66 -45 -112t-118 -66.5t-136.5 -29.5t-126.5 -9q-8 0 -21.5 1t-19.5 1zM616 1335q0 47 30 77t77 30 q45 0 74.5 -31t29.5 -76q0 -47 -30.5 -76.5t-75.5 -29.5q-47 0 -76 29.5t-29 76.5z" />
<glyph unicode="&#xec;" horiz-adv-x="460" d="M33 1483q0 63 131 96l223 -371l-63 -51q-160 143 -246 242q-45 51 -45 84zM154 0v1018h159v-1018h-159z" />
<glyph unicode="&#xed;" horiz-adv-x="460" d="M84 1208l225 371q127 -33 127 -92q0 -35 -45 -86q-57 -66 -244 -244zM154 0v1018h159v-1018h-159z" />
<glyph unicode="&#xee;" horiz-adv-x="460" d="M-59 1247q113 166 198 275q43 55 92 55q53 0 97 -53q115 -147 196 -277l-63 -51l-230 209l-227 -207zM154 0v1018h159v-1018h-159z" />
<glyph unicode="&#xef;" horiz-adv-x="460" d="M-53 1335q0 47 29.5 77t76.5 30q45 0 75 -31t30 -76q0 -47 -31 -76.5t-76 -29.5q-47 0 -75.5 29.5t-28.5 76.5zM154 0v1018h159v-1018h-159zM315 1335q0 47 30 77t77 30q45 0 74.5 -31t29.5 -76q0 -47 -30.5 -76.5t-75.5 -29.5q-47 0 -76 29.5t-29 76.5z" />
<glyph unicode="&#xf0;" horiz-adv-x="1038" d="M82 426q0 209 114.5 346t303.5 137q147 0 258 -73q-41 188 -154 313l-213 -145l-63 92l190 131q-106 78 -258 108l31 123q205 -35 346 -151l215 147l63 -92l-196 -133q217 -246 217 -660q0 -123 -24.5 -227t-74 -189t-136.5 -133.5t-201 -48.5q-205 0 -311.5 125 t-106.5 330zM242 422q0 -152 69.5 -237t196.5 -85q131 0 205.5 122t74.5 337q0 55 -6 115q-117 106 -268 106q-143 0 -207.5 -98t-64.5 -260z" />
<glyph unicode="&#xf1;" horiz-adv-x="1097" d="M141 1018h138l18 -148q119 176 330 177q160 0 242.5 -89.5t82.5 -263.5v-694h-159v645q0 131 -43 203t-162 72q-115 0 -196 -78t-81 -174v-668h-159v864zM289 1382q70 55 164 56q53 0 138 -26t128 -26q59 0 123 35l14 -123q-68 -37 -135 -36q-45 0 -140.5 22.5 t-131.5 22.5q-76 0 -146 -41z" />
<glyph unicode="&#xf2;" horiz-adv-x="1064" d="M94 516q0 -270 110.5 -407.5t309.5 -137.5q205 0 330 141.5t125 426.5q0 131 -31 229t-75 149.5t-106.5 82t-109.5 39t-98 8.5q-84 0 -158 -25t-144.5 -81t-111.5 -164.5t-41 -260.5zM254 537q0 174 71.5 279.5t211.5 105.5q270 0 270 -418q0 -180 -69.5 -295 t-209.5 -115q-274 1 -274 443zM332 1483q0 63 131 96l223 -371l-63 -51q-160 143 -246 242q-45 51 -45 84z" />
<glyph unicode="&#xf3;" horiz-adv-x="1064" d="M94 516q0 152 41 260.5t111.5 164.5t144.5 81t158 25q51 0 98 -8.5t109.5 -39t106.5 -82t75 -149.5t31 -229q0 -285 -125 -426.5t-330 -141.5q-199 0 -309.5 137.5t-110.5 407.5zM254 537q0 -442 274 -443q139 0 209 115t70 295q0 418 -270 418q-139 0 -211 -105.5 t-72 -279.5zM401 1208l226 371q127 -33 127 -92q0 -35 -45 -86q-57 -66 -244 -244z" />
<glyph unicode="&#xf4;" horiz-adv-x="1064" d="M94 516q0 -270 110.5 -407.5t309.5 -137.5q205 0 330 141.5t125 426.5q0 131 -31 229t-75 149.5t-106.5 82t-109.5 39t-98 8.5q-84 0 -158 -25t-144.5 -81t-111.5 -164.5t-41 -260.5zM246 1247q113 166 198 275q43 55 93 55q53 0 96 -53q115 -147 196 -277l-63 -51 l-229 209l-228 -207zM254 537q0 174 71.5 279.5t211.5 105.5q270 0 270 -418q0 -180 -69.5 -295t-209.5 -115q-274 1 -274 443z" />
<glyph unicode="&#xf5;" horiz-adv-x="1064" d="M94 516q0 152 41 260.5t111.5 164.5t144.5 81t158 25q51 0 98 -8.5t109.5 -39t106.5 -82t75 -149.5t31 -229q0 -285 -125 -426.5t-330 -141.5q-199 0 -309.5 137.5t-110.5 407.5zM254 537q0 -442 274 -443q139 0 209 115t70 295q0 418 -270 418q-139 0 -211 -105.5 t-72 -279.5zM256 1382q70 55 164 56q53 0 138 -26t128 -26q59 0 123 35l14 -123q-68 -37 -135 -36q-45 0 -140 22.5t-132 22.5q-76 0 -146 -41z" />
<glyph unicode="&#xf6;" horiz-adv-x="1064" d="M94 516q0 -270 110.5 -407.5t309.5 -137.5q205 0 330 141.5t125 426.5q0 131 -31 229t-75 149.5t-106.5 82t-109.5 39t-98 8.5q-84 0 -158 -25t-144.5 -81t-111.5 -164.5t-41 -260.5zM250 1335q0 47 29.5 77t76.5 30q45 0 75 -31t30 -76q0 -47 -31 -76.5t-76 -29.5 q-47 0 -75.5 29.5t-28.5 76.5zM254 537q0 174 71.5 279.5t211.5 105.5q270 0 270 -418q0 -180 -69.5 -295t-209.5 -115q-274 1 -274 443zM618 1335q0 47 30 77t77 30q45 0 74.5 -31t29.5 -76q0 -47 -30.5 -76.5t-75.5 -29.5q-47 0 -76 29.5t-29 76.5z" />
<glyph unicode="&#xf7;" d="M133 586v133h830v-133h-830zM436 285q0 49 32 82.5t81 33.5q53 0 86 -31.5t33 -82.5q0 -53 -32 -88t-83 -35q-55 0 -86 33t-31 88zM436 1024q0 51 32 85t81 34q53 0 86 -32t33 -85t-32 -87t-83 -34q-55 0 -86 32t-31 87z" />
<glyph unicode="&#xf8;" horiz-adv-x="1064" d="M94 516q0 152 41 260.5t111.5 164.5t144.5 81t158 25q98 0 170 -29l84 162l108 -56l-88 -168q145 -127 146 -417q0 -285 -125 -426.5t-330 -141.5q-100 0 -182 35l-84 -164l-107 58l90 176q-137 141 -137 440zM254 537q0 -203 55 -312l346 670q-53 27 -118 27 q-139 0 -211 -105.5t-72 -279.5zM395 129q53 -35 133 -35q139 0 209 115t70 295q0 197 -62 301z" />
<glyph unicode="&#xf9;" horiz-adv-x="1099" d="M150 322v696h159v-651q0 -131 43 -201t168 -70q104 0 187.5 78t83.5 168v676h157v-868l15 -150h-142l-16 139h-4q-109 -168 -322 -168q-329 1 -329 351zM322 1483q0 63 131 96l223 -371l-64 -51q-160 143 -245 242q-45 51 -45 84z" />
<glyph unicode="&#xfa;" horiz-adv-x="1099" d="M150 322v696h159v-651q0 -131 43 -201t168 -70q104 0 187.5 78t83.5 168v676h157v-868l15 -150h-142l-16 139h-4q-109 -168 -322 -168q-329 1 -329 351zM416 1208l225 371q127 -33 127 -92q0 -35 -45 -86q-57 -66 -244 -244z" />
<glyph unicode="&#xfb;" horiz-adv-x="1099" d="M150 322v696h159v-651q0 -131 43 -201t168 -70q104 0 187.5 78t83.5 168v676h157v-868l15 -150h-142l-16 139h-4q-109 -168 -322 -168q-329 1 -329 351zM252 1247q113 166 199 275q43 55 92 55q53 0 96 -53q115 -147 197 -277l-64 -51l-229 209l-228 -207z" />
<glyph unicode="&#xfc;" horiz-adv-x="1099" d="M150 322v696h159v-651q0 -131 43 -201t168 -70q104 0 187.5 78t83.5 168v676h157v-868l15 -150h-142l-16 139h-4q-109 -168 -322 -168q-329 1 -329 351zM260 1335q0 47 29.5 77t77.5 30q45 0 74.5 -31t29.5 -76q0 -47 -30.5 -76.5t-75.5 -29.5q-47 0 -76 29.5t-29 76.5z M629 1335q0 47 29.5 77t76.5 30q45 0 75 -31t30 -76q0 -47 -31 -76.5t-76 -29.5q-47 0 -75.5 29.5t-28.5 76.5z" />
<glyph unicode="&#xfd;" horiz-adv-x="1093" d="M150 399v619h159v-576q0 -70 6.5 -110.5t28 -82.5t70.5 -61.5t127 -19.5q115 0 182.5 66.5t67.5 173.5v610h155v-977q0 -178 -26 -283q-78 -303 -400 -303q-154 0 -231.5 68.5t-77.5 189.5q0 203 225 350q-139 14 -212.5 92t-73.5 244zM365 -266q0 -156 172 -156 q252 0 251 385v178q-209 -86 -316 -179t-107 -228zM403 1208l226 371q127 -33 127 -92q0 -35 -45 -86q-57 -66 -244 -244z" />
<glyph unicode="&#xfe;" horiz-adv-x="1081" d="M147 -430v1853h160v-405q127 29 230 29q446 0 446 -531q0 -264 -109.5 -407.5t-304.5 -143.5q-145 0 -262 80v-475h-160zM307 188q43 -41 116 -69.5t136 -28.5q119 0 191.5 100.5t72.5 305.5q0 92 -11 160.5t-42 132t-95.5 97.5t-158.5 34q-117 0 -209 -33v-699z" />
<glyph unicode="&#xff;" horiz-adv-x="1093" d="M150 399v619h159v-576q0 -70 6.5 -110.5t28 -82.5t70.5 -61.5t127 -19.5q115 0 182.5 66.5t67.5 173.5v610h155v-977q0 -178 -26 -283q-78 -303 -400 -303q-154 0 -231.5 68.5t-77.5 189.5q0 203 225 350q-139 14 -212.5 92t-73.5 244zM266 1335q0 47 30 77t77 30 q45 0 74.5 -31t29.5 -76q0 -47 -30.5 -76.5t-75.5 -29.5q-47 0 -76 29.5t-29 76.5zM365 -266q0 -156 172 -156q252 0 251 385v178q-209 -86 -316 -179t-107 -228zM635 1335q0 47 29.5 77t76.5 30q45 0 75 -31t30 -76q0 -47 -31 -76.5t-76 -29.5q-47 0 -75.5 29.5t-28.5 76.5 z" />
<glyph unicode="&#x152;" horiz-adv-x="1755" d="M111 678q0 188 53 330.5t144 222.5t195.5 117.5t221.5 37.5q92 0 197 -24h755v-139h-602v-459h516v-139h-516v-486h617v-139h-772q-119 -27 -215 -27q-281 0 -437.5 180.5t-156.5 524.5zM276 684q0 -111 20.5 -206t69 -181t139.5 -136t220 -50q111 0 188 32v1065 q-88 39 -188 39q-154 0 -258.5 -85t-147.5 -208t-43 -270z" />
<glyph unicode="&#x153;" horiz-adv-x="1636" d="M98 514q0 152 41 261.5t109.5 165.5t142.5 81t156 25q260 0 350 -234q53 111 152.5 172.5t228.5 61.5q141 0 219 -69t78 -185q0 -94 -48 -165t-117 -106t-159 -55.5t-157 -23.5q-41 -2 -81 -1h-52q6 -143 80.5 -243.5t226.5 -100.5q139 0 260 95l61 -109 q-133 -113 -332 -113q-279 0 -380 228q-51 -111 -147.5 -169.5t-217.5 -58.5q-197 0 -305.5 136.5t-108.5 406.5zM258 535q0 -440 274 -441q139 0 209 114t70 294q0 420 -270 420q-139 0 -211 -106.5t-72 -280.5zM958 555q13 -1 28 -1q43 0 94 5q69 6 152 25.5t138 68.5 t55 121t-43 113t-112 41q-150 0 -228 -115t-84 -258z" />
<glyph unicode="&#x178;" horiz-adv-x="1073" d="M12 1362l447 -844v-518h162v518l440 844h-172l-342 -678l-350 678h-185zM246 1599q0 45 29.5 75t76.5 30q45 0 75 -29.5t30 -75.5q0 -47 -31 -76.5t-76 -29.5q-47 0 -75.5 29.5t-28.5 76.5zM631 1599q0 45 29.5 75t76.5 30q45 0 75 -29.5t30 -75.5q0 -47 -31 -76.5 t-76 -29.5q-47 0 -75.5 29.5t-28.5 76.5z" />
<glyph unicode="&#x2c6;" horiz-adv-x="1024" d="M217 1247q113 166 199 275q43 55 92 55q53 0 96 -53q115 -147 197 -277l-64 -51l-229 209l-227 -207z" />
<glyph unicode="&#x2dc;" horiz-adv-x="1024" d="M223 1382q70 55 164 56q53 0 138 -26t128 -26q59 0 123 35l15 -123q-68 -37 -136 -36q-45 0 -140 22.5t-132 22.5q-76 0 -145 -41z" />
<glyph unicode="&#x2013;" horiz-adv-x="1024" d="M0 539v127h1024v-127h-1024z" />
<glyph unicode="&#x2014;" horiz-adv-x="2048" d="M0 539v127h2048v-127h-2048z" />
<glyph unicode="&#x2018;" horiz-adv-x="397" d="M82 1090q0 43 32.5 118.5t63.5 128.5l90 154l99 -33l-125 -450q-11 -1 -23 -1q-70 0 -108 23q-29 17 -29 60z" />
<glyph unicode="&#x2019;" horiz-adv-x="385" d="M63 1026l117 453q29 4 56 4q109 0 108 -82q0 -86 -184 -404z" />
<glyph unicode="&#x201a;" horiz-adv-x="409" d="M68 -240q33 205 65 336q16 59 35.5 86t54.5 27q61 0 135 -57l-198 -422z" />
<glyph unicode="&#x201c;" horiz-adv-x="718" d="M82 1090q0 43 32.5 118.5t63.5 128.5l90 154l99 -33l-125 -450q-11 -1 -23 -1q-70 0 -108 23q-29 17 -29 60zM401 1090q0 43 33 118.5t64 128.5l90 154l98 -33l-125 -450q-11 -1 -22 -1q-70 0 -109 23q-29 17 -29 60z" />
<glyph unicode="&#x201d;" horiz-adv-x="704" d="M63 1026l117 453q29 4 56 4q109 0 108 -82q0 -86 -184 -404zM383 1026l117 453q29 4 55 4q109 0 109 -82q0 -86 -185 -404z" />
<glyph unicode="&#x201e;" horiz-adv-x="729" d="M68 -240q33 205 65 336q16 59 35.5 86t54.5 27q61 0 135 -57l-198 -422zM387 -240q33 205 66 336q16 59 35.5 86t54.5 27q61 0 135 -57l-199 -422z" />
<glyph unicode="&#x2022;" horiz-adv-x="1024" d="M297 626.5q0 102.5 60.5 166t154.5 63.5t154.5 -63.5t60.5 -166t-60.5 -166t-154.5 -63.5t-154.5 63.5t-60.5 166z" />
<glyph unicode="&#x2026;" horiz-adv-x="1570" d="M143 92q0 51 33 85t84 34q55 0 88 -32t33 -85t-32 -87t-83 -34q-57 0 -90 32t-33 87zM676 92q0 51 32.5 85t84.5 34q55 0 87.5 -32t32.5 -85t-31.5 -87t-82.5 -34q-57 0 -90 32t-33 87zM1190 92q0 51 32.5 85t84.5 34q55 0 87.5 -32t32.5 -85t-31.5 -87t-82.5 -34 q-57 0 -90 32t-33 87z" />
<glyph unicode="&#x2039;" horiz-adv-x="630" d="M113 543q0 37 51 84q111 106 325 272l64 -63l-279 -295l263 -338l-68 -62q-250 225 -328 334q-28 41 -28 68z" />
<glyph unicode="&#x203a;" horiz-adv-x="630" d="M78 836l63 63q215 -166 326 -272q51 -47 51 -84q0 -27 -29 -68q-78 -109 -327 -334l-68 62l262 338z" />
<glyph unicode="&#x20ac;" horiz-adv-x="1116" d="M59 487h236q-104 -86 -105 -219q0 -129 102.5 -213t330.5 -84q276 0 456 166l-84 115q-158 -141 -356 -141q-268 0 -268 180q0 94 58 145t165 51h348v123h-883v-123zM59 702v123h226q-94 86 -95 199q0 129 106.5 225.5t313.5 96.5q276 0 480 -211l-103 -103 q-178 174 -377 174q-121 0 -180 -54t-59 -136q0 -98 59 -144.5t150 -46.5h362v-123h-883z" />
<glyph unicode="&#x2122;" horiz-adv-x="1392" d="M25 1253v109h526v-109h-205v-579h-125v579h-196zM610 674l47 688h131l177 -508l184 508h125l45 -688h-113l-26 495l-170 -454h-97l-161 448l-31 -489h-111z" />
<glyph unicode="&#xe000;" horiz-adv-x="1020" d="M0 1020h1020v-1020h-1020v1020z" />
<glyph unicode="&#xfb01;" horiz-adv-x="1044" d="M152 -430v1544q0 72 13 126t49 107.5t111.5 82t186.5 28.5q170 0 348 -82l-45 -114q-168 72 -295 71q-113 0 -161 -52t-48 -163v-100h586v-1018h-160v891h-426v-1321h-159z" />
<glyph unicode="&#xfb02;" horiz-adv-x="1204" d="M152 -430v1544q0 72 13 126t48 107.5t110.5 82t186.5 28.5q174 0 387 -78v-1093q0 -104 26.5 -146.5t102.5 -42.5q68 0 137 35l37 -110q-78 -51 -209 -52q-70 0 -119 18.5t-73.5 44t-39 69.5t-17.5 78t-3 83v627h-428v-1321h-159zM311 1018h428v268q-131 47 -223 47 q-113 0 -159 -51t-46 -164v-100z" />
<glyph unicode="&#xfb03;" horiz-adv-x="1632" d="M152 -430v1544q0 72 13 126t48 107.5t110.5 82t186.5 28.5q158 0 324 -76q92 76 266 76q170 0 348 -82l-45 -114q-168 72 -295 71q-113 0 -161 -52t-48 -163v-100h586v-1018h-160v891h-426v-1321h-160v1321h-428v-1321h-159zM311 1018h428v88q0 109 25 166 q-147 61 -254 61q-109 0 -154 -51t-45 -164v-100z" />
<glyph unicode="&#xfb04;" horiz-adv-x="1792" d="M152 -430v1544q0 72 13 126t48 107.5t110.5 82t186.5 28.5q176 0 324 -76q90 76 266 76q174 0 387 -78v-1093q0 -104 26.5 -146.5t102.5 -42.5q68 0 137 35l37 -110q-78 -51 -209 -52q-70 0 -119 18.5t-73.5 44t-39 69.5t-17.5 78t-3 83v627h-430v-1321h-158v1321h-430 v-1321h-159zM311 1018h430v96q0 98 25 156q-137 63 -250 63q-115 0 -160 -53t-45 -170v-92zM899 1018h428v266q-135 49 -223 49q-113 0 -159 -51t-46 -164v-100z" />
</font>
</defs>
</svg>
